<svg width="33" height="32" viewBox="0 0 33 32" fill="none" xmlns="http://www.w3.org/2000/svg">
<path fill-rule="evenodd" clip-rule="evenodd" d="M8.60838 9.92107H10.2273C10.7187 9.92107 11.1172 9.52629 11.1172 9.03868V3.8827C11.1172 3.39504 10.7187 3 10.2273 3H8.60838C8.11693 3 7.71855 3.39504 7.71855 3.8827V9.03868C7.71855 9.52629 8.11693 9.92107 8.60838 9.92107ZM27.0781 5.89527V9.04036C27.0781 10.4619 25.9159 11.6075 24.4835 11.6075H22.8468C21.4143 11.6075 20.2367 10.4619 20.2367 9.04036V5.88398H12.8596V9.04036C12.8596 10.4619 11.6821 11.6075 10.2498 11.6075H8.61278C7.18046 11.6075 6.01834 10.4619 6.01834 9.04036V5.89527C4.76648 5.93271 3.73779 6.96061 3.73779 8.22402V26.6557C3.73779 27.9429 4.78918 29.0001 6.08635 29.0001H27.01C28.3052 29.0001 29.3585 27.9407 29.3585 26.6557V8.22402C29.3585 6.96061 28.3299 5.93271 27.0781 5.89527ZM26.3181 25.5081C26.3181 26.0643 25.8635 26.5156 25.3027 26.5156H7.74932C7.18852 26.5156 6.734 26.0643 6.734 25.5081V15.9874C6.734 15.4309 7.18847 14.9796 7.74932 14.9796H25.3027C25.8635 14.9796 26.318 15.4309 26.318 15.9874L26.3181 25.5081ZM12.9953 17.3435C12.9953 17.0178 12.7291 16.7539 12.4006 16.7539H10.3252C9.99711 16.7539 9.73083 17.0178 9.73083 17.3435V19.4026C9.73083 19.7287 9.99711 19.9927 10.3252 19.9927H12.4006C12.7291 19.9927 12.9953 19.7287 12.9953 19.4026V17.3435ZM18.1805 17.3435C18.1805 17.0178 17.9142 16.7539 17.5863 16.7539H15.5107C15.1826 16.7539 14.9163 17.0178 14.9163 17.3435V19.4026C14.9163 19.7287 15.1826 19.9927 15.5107 19.9927H17.5863C17.9142 19.9927 18.1805 19.7287 18.1805 19.4026V17.3435ZM22.7731 16.7539C23.1013 16.7539 23.3675 17.0178 23.3675 17.3435V19.4026C23.3675 19.7287 23.1013 19.9927 22.7731 19.9927H20.6978C20.3693 19.9927 20.1031 19.7287 20.1031 19.4026V17.3435C20.1031 17.0178 20.3693 16.7539 20.6978 16.7539H22.7731ZM12.9953 22.4907C12.9953 22.1645 12.7291 21.9009 12.4006 21.9009H10.3252C9.99711 21.9009 9.73083 22.1645 9.73083 22.4907V24.5494C9.73083 24.8754 9.99711 25.1393 10.3252 25.1393H12.4006C12.7291 25.1393 12.9953 24.8753 12.9953 24.5494V22.4907ZM17.5863 21.9009C17.9142 21.9009 18.1805 22.1645 18.1805 22.4907V24.5494C18.1805 24.8753 17.9142 25.1393 17.5863 25.1393H15.5107C15.1826 25.1393 14.9163 24.8754 14.9163 24.5494V22.4907C14.9163 22.1645 15.1826 21.9009 15.5107 21.9009H17.5863ZM23.3675 22.4907C23.3675 22.1645 23.1013 21.9009 22.7734 21.9009H20.6978C20.3693 21.9009 20.1031 22.1645 20.1031 22.4907V24.5494C20.1031 24.8754 20.3693 25.1393 20.6978 25.1393H22.7734C23.1013 25.1393 23.3675 24.8753 23.3675 24.5494V22.4907ZM24.4471 9.92107H22.8281C22.3368 9.92107 21.9383 9.52629 21.9383 9.03868V3.8827C21.9383 3.39504 22.3368 3 22.8281 3H24.4471C24.9382 3 25.3366 3.39504 25.3366 3.8827V9.03868C25.3366 9.52629 24.9381 9.92107 24.4471 9.92107Z" fill="#523178"/>
</svg>
