<?xml version="1.0" encoding="UTF-8"?>
<svg width="112px" height="70px" viewBox="0 0 112 70" version="1.1" xmlns="http://www.w3.org/2000/svg" xmlns:xlink="http://www.w3.org/1999/xlink">
    <!-- Generator: Sketch 63.1 (92452) - https://sketch.com -->
    <title>card/small/debit</title>
    <desc>Created with Sketch.</desc>
    <defs>
        <path d="M0,5.00613538 C0,2.24132316 2.23724246,0 4.99344214,0 L107.006558,0 C109.76436,0 112,2.23011973 112,5.00613538 L112,64.9938646 C112,67.7586768 109.762758,70 107.006558,70 L4.99344214,70 C2.2356402,70 0,67.7698803 0,64.9938646 L0,5.00613538 Z" id="path-1"></path>
        <polygon id="path-3" points="0 0.0614391892 0 5.67785811 3.69005373 5.67785811 3.69005373 0.0614391892 0 0.0614391892"></polygon>
        <path d="M15.2088681,0.0472297297 L0.101327176,0.0472297297 C0.0590255393,0.0472297297 0.0247251426,0.0825 0.0247251426,0.126148649 L0.0247251426,1.34817568 C0.0247251426,1.39175676 0.0590255393,1.42702703 0.101327176,1.42702703 L15.2088681,1.42702703 L15.2088681,0.0472297297 Z" id="path-5"></path>
        <path d="M0.0532475948,0.0472297297 L9.30203149,0.0472297297 C9.30363737,0.0472297297 9.30523154,0.0472805601 9.30681256,0.0473807384 L9.30681256,1.42686762 C9.30518836,1.42697336 9.30355043,1.42702703 9.30190032,1.42702703 L0.0532475948,1.42702703 L0.0532475948,0.0472297297 L0.0532475948,0.0472297297 Z" id="path-7"></path>
        <path d="M0.0594583933,0.0472297297 L6.48192239,0.0472297297 C6.52422403,0.0472297297 6.55839326,0.0825 6.55839326,0.125945946 L6.55839326,1.34817568 C6.55839326,1.39175676 6.52409286,1.42702703 6.48179122,1.42702703 L0.0594583933,1.42702703 L0.0594583933,0.0472297297 Z" id="path-9"></path>
    </defs>
    <g id="card/small/debit" stroke="none" stroke-width="1" fill="none" fill-rule="evenodd">
        <g id="img-tarjeta">
            <mask id="mask-2" fill="white">
                <use xlink:href="#path-1"></use>
            </mask>
            <use id="figura-card" fill="#4F2D7F" xlink:href="#path-1"></use>
            <path d="M56.9887068,62.0124487 C56.9887068,61.6620558 56.5500559,61.5579169 56.5500559,61.5579169 C52.1521265,60.7187294 48.0433844,57.5937179 44.942599,54.3157892 C39.8680522,48.9360098 35.6194187,42.0879897 33.9803553,38.9005286 C33.4835982,37.7441984 34.1862459,37.6172738 34.1862459,37.6172738 L34.1822154,37.6110289 C42.795023,34.3197664 44.2522107,25.6953085 44.2676609,23.3389334 C44.3163626,12.3974268 34.0198205,9.12067962 24.7419831,9.08219717 C22.9556392,9.06835699 21.7753792,9.13637641 20.5645548,9.20439584 C19.3989054,9.26971474 18.2048746,9.33520242 16.4145002,9.3276072 C12.1692254,9.30600302 9.61423467,9 8.95944902,9 C8.37670827,9 8.00422441,9.51276181 8.00002599,10.0960748 C7.98558342,12.7376927 13.9952024,8.2872307 13.9572487,17.0927924 L13.7866249,52.2858398 C13.7532055,60.4368623 8.06652897,58.1427679 8.05611689,60.1165127 C8.05426958,60.7707144 8.78848934,61.0191625 9.21924728,61.024226 C10.2727149,61.0294583 11.396884,60.9580632 12.68328,60.8864993 C13.9868056,60.8139228 15.4570924,60.741515 17.1896965,60.7489415 C21.5095353,60.7676763 22.6021322,61.084819 25.0889406,61.0983216 C26.9040017,61.1033851 27.2059521,60.7280124 27.2079673,60.2194702 C27.2212343,57.7176043 19.5272091,61.4954673 19.5799412,50.9337217 L19.7517406,13.8179019 C19.7641679,11.6206888 21.3627585,11.6333475 23.6992634,11.6395925 C32.1157529,11.6787501 38.7440511,16.4188431 38.8518665,25.2971502 C38.9160184,31.3265742 34.4075866,37.0380116 26.9481691,36.9975038 C24.3139122,36.9902461 24.8941339,36.8310841 24.3013169,36.8310841 C23.9557029,36.8228137 23.5790207,36.9715113 23.5790207,37.4770154 C23.5729749,38.1641297 24.1172582,38.506421 24.7419831,38.6875249 C25.5626903,39.0421373 27.4449262,39.3673815 29.3899704,42.4083393 L29.3943367,42.4083393 C34.342595,50.6260309 39.8907237,62.9378842 52.6791122,62.9993211 C57.4584261,63.0222755 56.9846764,62.4585413 56.9887068,62.0124487" id="Fill-1" fill-opacity="0.1" fill="#FFFFFF" mask="url(#mask-2)"></path>
            <polygon id="guion" fill="#A73E92" mask="url(#mask-2)" points="108 70 124 70 124 44 108 44"></polygon>
            <polygon id="guion" fill="#FFAE47" mask="url(#mask-2)" points="108 46 124 46 124 32 108 32"></polygon>
            <polygon id="guion" fill="#FF1C33" mask="url(#mask-2)" points="108 35 124 35 124 0 108 0"></polygon>
        </g>
        <g id="brand/logo-white" transform="translate(57.000000, 9.000000)">
            <g id="Page-1" transform="translate(2.743119, 0.000000)">
                <g id="Group-26" transform="translate(0.000000, 0.007230)">
                    <g id="Group-3" transform="translate(0.000000, 0.135135)">
                        <mask id="mask-4" fill="white">
                            <use xlink:href="#path-3"></use>
                        </mask>
                        <g id="Clip-2"></g>
                        <path d="M1.5962211,4.81961486 C1.76693608,4.81961486 1.92125507,4.79002027 2.0611456,4.73002027 C2.20070821,4.6699527 2.32007096,4.58522297 2.41956179,4.47677703 C2.51898703,4.36738514 2.59539231,4.23610135 2.64989256,4.08238514 C2.70452398,3.92947973 2.73161014,3.75860135 2.73161014,3.57150676 C2.73161014,3.38434459 2.70452398,3.21400676 2.64989256,3.06015541 C2.59539231,2.90725 2.51898703,2.77596622 2.41956179,2.66664189 C2.32007096,2.55731757 2.20070821,2.47299324 2.0611456,2.41326351 C1.92125507,2.35360135 1.76693608,2.32360135 1.5962211,2.32360135 C1.51588078,2.32360135 1.43514696,2.3299527 1.3550034,2.34326351 C1.27420399,2.35623649 1.20350451,2.36792568 1.14238029,2.37819595 C1.06636851,2.39907432 0.993308009,2.41981757 0.922083858,2.44049324 L0.922083858,4.70265541 C0.993308009,4.72346622 1.06636851,4.74164189 1.14238029,4.75725 C1.20829214,4.77812838 1.28076239,4.79353378 1.35815143,4.80393919 C1.43632747,4.81468243 1.51588078,4.81961486 1.5962211,4.81961486 L1.5962211,4.81961486 Z M0.922083858,1.58272297 C0.993308009,1.56184459 1.06636851,1.54089865 1.14238029,1.52002027 C1.20829214,1.5045473 1.28076239,1.49157432 1.35815143,1.48083108 C1.43632747,1.47076351 1.51588078,1.46535811 1.5962211,1.46535811 C1.90826945,1.46535811 2.19231346,1.52002027 2.44789405,1.62934459 C2.70347463,1.73826351 2.92318081,1.88772297 3.10786516,2.07752027 C3.29182809,2.26772297 3.43532574,2.49103378 3.53698083,2.74866892 C3.63889826,3.00630405 3.69005373,3.28035811 3.69005373,3.57150676 C3.69005373,3.86299324 3.63889826,4.13697973 3.53698083,4.39475 C3.43532574,4.65184459 3.29182809,4.87562838 3.10786516,5.06542568 C2.92318081,5.25562838 2.70347463,5.40481757 2.44789405,5.51380405 C2.19231346,5.62312838 1.90826945,5.67785811 1.5962211,5.67785811 C1.39284533,5.67785811 1.19556886,5.65947973 1.00380144,5.62312838 C0.812165187,5.58664189 0.64059762,5.54515541 0.489361071,5.49812838 C0.318777263,5.45157432 0.15580119,5.39461486 -2.6233573e-05,5.32670946 L-2.6233573e-05,0.0954256757 C-2.6233573e-05,0.0765743243 0.0134840565,0.0614391892 0.0307326308,0.0614391892 L0.890997074,0.0614391892 C0.907917729,0.0614391892 0.922083858,0.0765743243 0.922083858,0.0954256757 L0.922083858,1.58272297 Z" id="Fill-1" fill="#FFFFFF" mask="url(#mask-4)"></path>
                    </g>
                    <path d="M15.4998181,5.33910811 C15.5071635,5.35451351 15.5038843,5.3732973 15.4916201,5.38343243 C15.3925227,5.46437838 15.2816203,5.53654054 15.1583881,5.59924324 C15.0352215,5.66174324 14.896118,5.71640541 14.739897,5.76302703 C14.5836105,5.81032432 14.4037138,5.8332973 14.2004036,5.8332973 C13.8879617,5.8332973 13.6043768,5.7787027 13.3485339,5.66944595 C13.0937403,5.56012162 12.8735095,5.4107973 12.6887595,5.221 C12.5046654,5.03133784 12.3613645,4.80782432 12.2596439,4.55052703 C12.1579232,4.29262162 12.1069645,4.0187027 12.1069645,3.72714865 C12.1069645,3.43633784 12.1579232,3.16167568 12.2596439,2.90424324 C12.3613645,2.64687838 12.5046654,2.42336486 12.6887595,2.23309459 C12.8735095,2.04377027 13.0937403,1.89424324 13.3485339,1.78491892 C13.6043768,1.67559459 13.8879617,1.62093243 14.2004036,1.62093243 C14.3940729,1.62093243 14.5692476,1.64316216 14.725403,1.68748649 C14.8816239,1.73133784 15.0167268,1.77958108 15.1297935,1.83154054 C15.2482381,1.89424324 15.3557957,1.961 15.4537781,2.03248649 C15.4674852,2.04282432 15.4713546,2.06248649 15.4638125,2.07789189 L15.1387129,2.72012162 C15.130187,2.73775676 15.1099872,2.74289189 15.0953619,2.73235135 C15.0314832,2.68822973 14.9628168,2.64816216 14.8890349,2.61194595 C14.8081043,2.57566216 14.717205,2.54458108 14.6151564,2.5182973 C14.5135669,2.49208108 14.3993197,2.47917568 14.2715622,2.47917568 C14.1009128,2.47917568 13.942462,2.51295946 13.7962098,2.58086486 C13.6493674,2.64856757 13.5213476,2.73944595 13.4126094,2.85336486 C13.3036089,2.96809459 13.2185465,3.10052703 13.1572911,3.25154054 C13.0959046,3.40235135 13.064949,3.56059459 13.064949,3.72714865 C13.064949,3.8937027 13.0959046,4.05235135 13.1572911,4.20316216 C13.2185465,4.35377027 13.3036089,4.48667568 13.4126094,4.60093243 C13.5213476,4.71559459 13.6493674,4.80660811 13.7962098,4.87383784 C13.942462,4.94133784 14.1009128,4.97525676 14.2715622,4.97525676 C14.4081079,4.97525676 14.5313401,4.95951351 14.6404062,4.9282973 C14.7493411,4.89741892 14.8414865,4.86127027 14.917236,4.81944595 C14.9954776,4.77890541 15.0662427,4.73417568 15.1297935,4.68566216 C15.1450746,4.6737027 15.1659958,4.67910811 15.1751776,4.69687838 L15.4998181,5.33910811 Z" id="Fill-4" fill="#FFFFFF"></path>
                    <path d="M18.5627976,3.72711486 C18.5627976,3.53988514 18.5355802,3.37008784 18.4809488,3.21616892 C18.4269732,3.06285811 18.3531913,2.93164189 18.2610459,2.82218243 C18.1690972,2.71285811 18.0604246,2.62873649 17.9345691,2.56920946 C17.8094349,2.50920946 17.6756437,2.47914189 17.5339168,2.47914189 C17.3919932,2.47914189 17.2581364,2.50920946 17.1328711,2.56920946 C17.0073434,2.62873649 16.8990644,2.71285811 16.806591,2.82218243 C16.7140521,2.93164189 16.6407293,3.06285811 16.5865569,3.21616892 C16.5320567,3.37008784 16.5049705,3.53988514 16.5049705,3.72711486 C16.5049705,3.9145473 16.5320567,4.08508784 16.5865569,4.23799324 C16.6407293,4.39170946 16.7140521,4.52312838 16.806591,4.63252027 C16.8990644,4.74184459 17.0073434,4.82596622 17.1328711,4.88549324 C17.2581364,4.94515541 17.3919932,4.97529054 17.5339168,4.97529054 C17.6756437,4.97529054 17.8094349,4.94515541 17.9345691,4.88549324 C18.0604246,4.82596622 18.1690972,4.74184459 18.2610459,4.63252027 C18.3531913,4.52312838 18.4269732,4.39170946 18.4809488,4.23799324 C18.5355802,4.08508784 18.5627976,3.9145473 18.5627976,3.72711486 M15.5469204,3.72711486 C15.5469204,3.43589865 15.5973545,3.16211486 15.6990096,2.90420946 C15.8011893,2.64664189 15.9408175,2.42333108 16.1183532,2.23312838 C16.2957578,2.04373649 16.5049705,1.89420946 16.7461882,1.7849527 C16.9876683,1.67562838 17.2499384,1.62089865 17.5339168,1.62089865 C17.817305,1.62089865 18.0815427,1.67562838 18.3249246,1.7849527 C18.5687657,1.89420946 18.7794869,2.04373649 18.9566947,2.23312838 C19.1339025,2.42333108 19.2722846,2.64664189 19.371841,2.90420946 C19.4713318,3.16211486 19.5206509,3.43589865 19.5206509,3.72711486 C19.5206509,4.01866892 19.4713318,4.29258784 19.371841,4.55056081 C19.2722846,4.80738514 19.1339025,5.03137162 18.9566947,5.22096622 C18.7794869,5.41076351 18.5687657,5.56042568 18.3249246,5.66941216 C18.0815427,5.77866892 17.817305,5.83333108 17.5339168,5.83333108 C17.2499384,5.83333108 16.9876683,5.77866892 16.7461882,5.66941216 C16.5049705,5.56042568 16.2957578,5.41076351 16.1183532,5.22096622 C15.9408175,5.03137162 15.8011893,4.80738514 15.6990096,4.55056081 C15.5973545,4.29258784 15.5469204,4.01866892 15.5469204,3.72711486" id="Fill-6" fill="#FFFFFF"></path>
                    <path d="M23.2699794,2.47837162 C23.1893767,2.47837162 23.11225,2.48762838 23.0390584,2.50573649 C22.9656044,2.52465541 22.9029717,2.54107432 22.8509636,2.55580405 C22.7852485,2.58465541 22.7234029,2.61425 22.6665416,2.64391216 L22.6665416,5.64242568 C22.6665416,5.66134459 22.6525723,5.67647973 22.635586,5.67647973 L21.7756495,5.67647973 C21.7581386,5.67647973 21.7441036,5.66134459 21.7441036,5.64242568 L21.7441036,1.97161486 C21.8767143,1.90425 22.0209334,1.84418243 22.1772199,1.79215541 C22.3193403,1.74519595 22.474971,1.70479054 22.6450957,1.67100676 C22.8157451,1.63735811 23.0000359,1.62060135 23.1990176,1.62060135 C23.3737988,1.62060135 23.5333645,1.63620946 23.6778459,1.66742568 C23.8221961,1.69850676 23.9485108,1.73485811 24.057708,1.77647973 C24.1753,1.81992568 24.2829232,1.86735811 24.3807745,1.91931757 C24.3947438,1.92688514 24.4018925,1.94479054 24.3967769,1.96100676 L24.1693319,2.71749324 C24.1629702,2.73870946 24.1406061,2.74749324 24.123751,2.73620946 C24.0606593,2.69431757 23.991665,2.65573649 23.915522,2.61884459 C23.8303941,2.58120946 23.7345104,2.5490473 23.6281333,2.52060135 C23.5218217,2.49249324 23.4023278,2.47837162 23.2699794,2.47837162" id="Fill-8" fill="#FFFFFF"></path>
                    <path d="M24.8917717,1.77630405 L25.7517082,1.77630405 C25.7689568,1.77630405 25.7826638,1.79211486 25.7826638,1.81083108 L25.7826638,5.6424527 C25.7826638,5.66137162 25.7689568,5.67650676 25.7517082,5.67650676 L24.9058722,5.67650676 C24.880688,5.67650676 24.8606193,5.65441216 24.8606193,5.62677703 L24.8606193,1.81083108 C24.8606193,1.79211486 24.8739984,1.77630405 24.8917717,1.77630405 M24.754111,0.645628378 C24.754111,0.489547297 24.8082833,0.352925676 24.9172182,0.235560811 C25.0258908,0.118601351 25.160797,0.0603581081 25.3218711,0.0603581081 C25.4821582,0.0603581081 25.6172611,0.118601351 25.7258681,0.235560811 C25.8350654,0.352925676 25.8895656,0.489547297 25.8895656,0.645628378 C25.8895656,0.801168919 25.8350654,0.937858108 25.7258681,1.0549527 C25.6172611,1.1720473 25.4821582,1.23042568 25.3218711,1.23042568 C25.160797,1.23042568 25.0258908,1.1720473 24.9172182,1.0549527 C24.8082833,0.937858108 24.754111,0.801168919 24.754111,0.645628378" id="Fill-10" fill="#FFFFFF"></path>
                    <path d="M28.1778218,2.45870946 C28.0968912,2.45870946 28.0167477,2.46512838 27.9358827,2.47796622 C27.8556735,2.49100676 27.7844494,2.50262838 27.723194,2.51337162 C27.6479036,2.53377703 27.5741217,2.55465541 27.5035534,2.57560135 L27.5035534,4.83776351 C27.5741217,4.85864189 27.6479036,4.87634459 27.723194,4.89202027 C27.7893026,4.91323649 27.8620352,4.92870946 27.9395554,4.93864189 C28.0178626,4.94979054 28.0968912,4.95472297 28.1778218,4.95472297 C28.3477498,4.95472297 28.5024623,4.92452027 28.6423528,4.86512838 C28.7817843,4.80546622 28.9013438,4.72080405 29.0008346,4.61147973 C29.1002598,4.50215541 29.1765995,4.37080405 29.2311654,4.21708784 C29.2854033,4.06425 29.3128174,3.89370946 29.3128174,3.70668243 C29.3128174,3.51911486 29.2854033,3.34918243 29.2311654,3.19566892 C29.1765995,3.04208784 29.1002598,2.91066892 29.0008346,2.80141216 C28.9013438,2.69242568 28.7817843,2.60810135 28.6423528,2.54837162 C28.5024623,2.48830405 28.3477498,2.45870946 28.1778218,2.45870946 M27.4720075,7.13864189 L26.6122678,7.13864189 C26.5949536,7.13864189 26.5807219,7.12296622 26.5807219,7.1044527 L26.5807219,1.97512838 C26.5807219,1.96080405 26.5888543,1.94810135 26.6007906,1.94283108 C26.7510434,1.87877703 26.9073299,1.82181757 27.0705683,1.77208784 C27.2312489,1.72526351 27.4053087,1.68479054 27.5922885,1.65093919 C27.7788748,1.61708784 27.9740525,1.60053378 28.1778218,1.60053378 C28.4898702,1.60053378 28.7733239,1.65512838 29.0290357,1.76411486 C29.2842228,1.87343919 29.5045848,2.02289865 29.6894659,2.21262838 C29.8734944,2.40249324 30.0162706,2.62641216 30.1183848,2.88337162 C30.2201055,3.14107432 30.2708674,3.41546622 30.2708674,3.70668243 C30.2708674,3.99769595 30.2201055,4.27175 30.1183848,4.5294527 C30.0162706,4.78735811 29.8734944,5.01033108 29.6894659,5.20053378 C29.5045848,5.39039865 29.2842228,5.53999324 29.0290357,5.64897973 C28.7733239,5.75823649 28.4898702,5.81303378 28.1778218,5.81303378 C28.0968912,5.81303378 28.0167477,5.80607432 27.9358827,5.79303378 C27.8556735,5.78026351 27.7844494,5.76830405 27.723194,5.75823649 C27.6479036,5.73722297 27.5741217,5.71641216 27.5035534,5.69593919 L27.5035534,7.1044527 C27.5035534,7.12296622 27.489584,7.13864189 27.4720075,7.13864189" id="Fill-12" fill="#FFFFFF"></path>
                    <path d="M30.9710284,5.67647973 C30.9535831,5.67647973 30.939876,5.66100676 30.939876,5.64242568 L30.939876,1.03533108 L30.9372527,0.251209459 C30.9372527,0.23175 30.9517467,0.216277027 30.969192,0.216277027 L31.8311617,0.216277027 C31.848607,0.216277027 31.862314,0.23175 31.862314,0.251209459 L31.862314,5.64242568 C31.862314,5.66100676 31.848607,5.67647973 31.8311617,5.67647973" id="Fill-14" fill="#FFFFFF"></path>
                    <line x1="31.8311813" y1="5.67647973" x2="30.9710481" y2="5.67647973" id="Fill-16" fill="#FFFFFF"></line>
                    <path d="M35.2176536,3.35549324 C35.1799428,3.10089865 35.0803864,2.88752027 34.9197714,2.71596622 C34.7586972,2.54414189 34.5624701,2.45833108 34.3305653,2.45833108 C34.0989885,2.45833108 33.9008594,2.54414189 33.7379489,2.71596622 C33.5750384,2.88752027 33.4744983,3.10089865 33.4362628,3.35549324 L35.2176536,3.35549324 Z M35.737603,4.17468243 L33.4362628,4.17468243 C33.5119467,4.38792568 33.6370152,4.57137162 33.8124523,4.7245473 C33.9876925,4.87785811 34.2430108,4.95475 34.5787349,4.95475 C34.7212488,4.95475 34.8484817,4.93907432 34.9621386,4.90785811 C35.0755988,4.87677703 35.1727942,4.84049324 35.2528722,4.79853378 C35.3353112,4.75806081 35.4083717,4.71333108 35.473103,4.66461486 C35.4886464,4.65299324 35.5093054,4.65826351 35.5182248,4.67603378 L35.8428652,5.31785811 C35.8503418,5.33333108 35.8466035,5.3524527 35.8336179,5.36258784 C35.7304544,5.44387162 35.6151578,5.51589865 35.4874003,5.57860135 C35.3642337,5.64130405 35.221064,5.69596622 35.05776,5.74258784 C34.8945216,5.78880405 34.7115424,5.81299324 34.5079043,5.81299324 C34.1958559,5.81299324 33.9131236,5.75920946 33.6597073,5.65312838 C33.4069468,5.54630405 33.1903231,5.39914189 33.0107543,5.21197973 C32.8310543,5.02488514 32.6926722,4.80238514 32.5954768,4.54508784 C32.4982158,4.28772297 32.4496837,4.00806081 32.4496837,3.70664189 C32.4496837,3.39468243 32.4957237,3.10961486 32.5884593,2.85258784 C32.6808015,2.5949527 32.8107233,2.3724527 32.9788149,2.18542568 C33.146513,1.99826351 33.3452979,1.85366892 33.5750384,1.75218243 C33.8039919,1.65089865 34.0559654,1.60049324 34.3305653,1.60049324 C34.6050997,1.60049324 34.8566796,1.65089865 35.0863546,1.75218243 C35.315636,1.85366892 35.5141586,1.99826351 35.6823158,2.18542568 C35.8503418,2.3724527 35.980198,2.5949527 36.0729337,2.85258784 C36.1634395,3.10583108 36.2098729,3.38502027 36.2109879,3.69110135 C36.2109879,3.70049324 36.2072496,3.71008784 36.2006256,3.71725 L35.7591146,4.16542568 C35.7531464,4.17130405 35.7453419,4.17468243 35.737603,4.17468243 L35.737603,4.17468243 Z" id="Fill-18" fill="#FFFFFF"></path>
                    <path d="M40.3340988,5.34062162 C40.3340988,5.57474324 40.2891739,5.79954054 40.1993894,6.01508108 C40.1092771,6.23082432 39.9767976,6.42210811 39.8020164,6.58852703 C39.6268417,6.75521622 39.4150056,6.88771622 39.1667704,6.9867027 C38.9184697,7.08514865 38.6335075,7.13440541 38.3114904,7.13440541 C38.0992608,7.13440541 37.9074278,7.10974324 37.7367784,7.06082432 C37.5665225,7.01122973 37.4224346,6.95798649 37.3041212,6.90068919 C37.1623943,6.83298649 37.0365387,6.75521622 36.9278006,6.66656757 L37.2673942,5.99521622 C37.275461,5.97832432 37.2952017,5.97251351 37.3100237,5.98285135 C37.3883965,6.03251351 37.476279,6.07859459 37.5738679,6.12068919 C37.6684399,6.16231081 37.7771781,6.1987973 37.9000168,6.23001351 C38.023249,6.26116216 38.1601882,6.27663514 38.3114904,6.27663514 C38.553036,6.27663514 38.745656,6.23264865 38.8899407,6.1442027 C39.03475,6.05568919 39.1440784,5.95663514 39.2202213,5.84737838 C39.3096778,5.72251351 39.3734254,5.57974324 39.4113985,5.41839189 L39.4113985,5.34062162 C39.3267296,5.35622973 39.2413394,5.36906757 39.1559491,5.37981081 C39.0758711,5.38987838 38.9905464,5.39913514 38.9008276,5.40677027 C38.8105841,5.41460811 38.7204062,5.41839189 38.6310153,5.41839189 C38.3282143,5.41839189 38.0606974,5.37447297 37.8291861,5.28595946 C37.5972813,5.19744595 37.400923,5.07487838 37.2402424,4.91940541 C37.0792339,4.76339189 36.9572477,4.57859459 36.8744152,4.36528378 C36.7924353,4.15210811 36.7504616,3.91798649 36.7504616,3.66345946 L36.7504616,1.63095946 C36.7504616,1.61156757 36.7646277,1.59589189 36.7820731,1.59589189 L37.6418128,1.59589189 C37.6592582,1.59589189 37.6733587,1.61156757 37.6733587,1.63095946 L37.6733587,3.66345946 C37.6733587,3.91798649 37.7571094,4.13163514 37.9252666,4.30298649 C38.0929647,4.47440541 38.3282143,4.56021622 38.6310153,4.56021622 C38.7305061,4.56021622 38.825734,4.55372973 38.9184697,4.54089189 C39.0105495,4.52798649 39.0947593,4.51359459 39.1705087,4.49805405 C39.2554399,4.48244595 39.3363049,4.46427027 39.4113985,4.44345946 L39.4113985,1.63095946 C39.4113985,1.61156757 39.4257614,1.59589189 39.4432067,1.59589189 L40.3028809,1.59589189 C40.3199327,1.59589189 40.3340988,1.61156757 40.3340988,1.63095946 L40.3340988,5.34062162 Z" id="Fill-20" fill="#FFFFFF"></path>
                    <path d="M8.05520879,5.6055473 L8.05520879,2.02257432 C8.05520879,1.99210135 8.07285087,1.96520946 8.09849419,1.95575 C8.260093,1.89500676 8.42759436,1.84034459 8.60158853,1.79250676 C8.77676322,1.7459527 8.96184107,1.70602027 9.15813378,1.67183108 C9.35429533,1.63852027 9.55426074,1.62088514 9.75776768,1.62088514 C10.0601752,1.62088514 10.328807,1.66514189 10.5625481,1.75338514 C10.7971418,1.84230405 10.993041,1.96439865 11.1518853,2.12020946 C11.3099426,2.27615541 11.4306826,2.46061486 11.5135807,2.67385811 C11.5955606,2.88730405 11.6373376,3.12102027 11.6373376,3.37534459 L11.6373376,5.6055473 C11.6373376,5.64433108 11.6090053,5.67547973 11.5737212,5.67547973 L10.7789095,5.67547973 C10.7440844,5.67547973 10.7150963,5.64433108 10.7150963,5.6055473 L10.7150963,3.37534459 C10.7150963,3.12102027 10.6312801,2.90730405 10.4635164,2.73622297 C10.2954248,2.56460135 10.0601752,2.47879054 9.75776768,2.47879054 C9.65867036,2.47879054 9.56285223,2.48831757 9.47018213,2.50642568 C9.38006981,2.52433108 9.29717172,2.54075 9.22273396,2.55500676 C9.21978268,2.55534459 9.21715932,2.55615541 9.21427363,2.55730405 C9.14652543,2.58047973 9.08205642,2.60385811 9.01981727,2.62770946 C8.99417395,2.63737162 8.97784355,2.66358784 8.97784355,2.69352027 L8.97784355,5.6055473 C8.97784355,5.64433108 8.94892104,5.67547973 8.91370247,5.67547973 L8.11889079,5.67547973 C8.08400014,5.67547973 8.05520879,5.64433108 8.05520879,5.6055473" id="Fill-22" fill="#FFFFFF"></path>
                    <path d="M6.53966904,4.83162162 C6.46365727,4.8525 6.38082476,4.87087838 6.29090919,4.88635135 C6.21542208,4.90182432 6.12898246,4.91628378 6.03237732,4.92932432 C5.93498518,4.94256757 5.83214958,4.94891892 5.72321467,4.94891892 C5.4206104,4.94891892 5.20897105,4.89810811 5.08809986,4.79662162 C4.96788452,4.695 4.90741613,4.57736486 4.90741613,4.44189189 C4.90741613,4.30668919 4.96788452,4.18824324 5.08809986,4.08662162 C5.20897105,3.98533784 5.4206104,3.93445946 5.72321467,3.93445946 C5.83214958,3.93445946 5.93373909,3.93844595 6.02850787,3.94614865 C6.12340782,3.95412162 6.21056887,3.96331081 6.29090919,3.97344595 C6.38082476,3.98418919 6.46365727,3.99689189 6.53966904,4.0127027 L6.53966904,4.83162162 Z M7.46210705,3.31033784 C7.46210705,2.7802027 7.31552697,2.36195946 7.02177653,2.0547973 C6.72861635,1.74824324 6.29569681,1.59472973 5.72321467,1.59472973 C5.51078831,1.59472973 5.32230009,1.61513514 5.15906168,1.65709459 C4.99595444,1.69871622 4.85291588,1.74824324 4.72994601,1.805 C4.60323785,1.86736486 4.49266334,1.93418919 4.39835364,2.00594595 C4.3846466,2.01581081 4.38130182,2.03506757 4.38871281,2.05108108 L4.7148617,2.69587838 C4.7234532,2.7125 4.74161995,2.71824324 4.75676984,2.70952703 C4.8348803,2.66398649 4.92040175,2.6222973 5.01353093,2.58506757 C5.10357767,2.55385135 5.20897105,2.52412162 5.32964549,2.49540541 C5.45038551,2.46716216 5.58161896,2.45216216 5.72321467,2.45216216 C6.00725868,2.45216216 6.21391365,2.51486486 6.34429451,2.63972973 C6.47441303,2.76452703 6.53966904,2.93614865 6.53966904,3.15439189 C6.46844489,3.13871622 6.39033443,3.12628378 6.30520648,3.11527027 C6.22952263,3.10540541 6.14209924,3.09594595 6.04287075,3.08790541 C5.94337993,3.08081081 5.83687162,3.07695946 5.72321467,3.07695946 C5.41110073,3.07695946 5.14358387,3.11148649 4.92158226,3.18175676 C4.69925273,3.25195946 4.5160768,3.34689189 4.37146423,3.46675676 C4.22691725,3.58641892 4.12080244,3.72932432 4.05233282,3.89560811 C3.98353527,4.06189189 3.94943163,4.24412162 3.94943163,4.44189189 C3.94943163,4.63398649 3.98353527,4.815 4.05233282,4.98378378 C4.12080244,5.15310811 4.22691725,5.29709459 4.37146423,5.41648649 C4.5160768,5.53655405 4.69925273,5.63141892 4.92158226,5.70168919 C5.14358387,5.77182432 5.41110073,5.80716216 5.72321467,5.80716216 C5.95525062,5.80716216 6.17266136,5.79378378 6.37610272,5.76804054 C6.56275459,5.74364865 6.73484683,5.7152027 6.89329761,5.68297297 L7.46210705,5.12844595 L7.46210705,3.31033784 Z" id="Fill-24" fill="#FFFFFF"></path>
                </g>
                <g id="Group-36" transform="translate(21.708282, 8.453176)">
                    <g id="Group-29">
                        <mask id="mask-6" fill="white">
                            <use xlink:href="#path-5"></use>
                        </mask>
                        <g id="Clip-28"></g>
                        <path d="M14.9213481,5.00001351 L-2.6405862,5.00001351 C-2.7993649,5.00001351 -2.92804058,4.86737838 -2.92804058,4.70386486 L-2.92804058,-0.820527027 C-2.92804058,-0.984108108 -2.79929932,-1.11667568 -2.64052062,-1.11667568 L14.9214137,-1.11667568 C15.0801924,-1.11667568 15.2088681,-0.984108108 15.2088681,-0.820594595 L15.2088681,4.7037973 C15.2088681,4.86737838 15.0801268,5.00001351 14.9213481,5.00001351" id="Fill-27" fill="#E22D36" mask="url(#mask-6)"></path>
                    </g>
                    <g id="Group-32" transform="translate(9.247334, 0.000000)">
                        <mask id="mask-8" fill="white">
                            <use xlink:href="#path-7"></use>
                        </mask>
                        <g id="Clip-31"></g>
                        <path d="M9.30681256,5.00001351 L0.310008691,5.00001351 C0.168281813,5.00001351 0.0532475948,4.72271622 0.0532475948,4.38089189 L0.0532475948,-0.497418919 C0.0532475948,-0.839378378 0.168281813,-1.11667568 0.310008691,-1.11667568 L9.30681256,-1.11667568" id="Fill-30" fill="#F2AD4B" mask="url(#mask-8)"></path>
                    </g>
                    <g id="Group-35" transform="translate(12.067444, 0.000000)">
                        <mask id="mask-10" fill="white">
                            <use xlink:href="#path-9"></use>
                        </mask>
                        <g id="Clip-34"></g>
                        <path d="M6.40555646,5.00001351 L0.346781602,5.00001351 C0.188068485,5.00001351 0.0594583933,4.86744595 0.0594583933,4.70393243 L0.0594583933,-0.820527027 C0.0594583933,-0.984108108 0.188134069,-1.11667568 0.346978354,-1.11667568 L6.40555646,-1.11667568 C6.56433516,-1.11667568 6.69307642,-0.984108108 6.69307642,-0.820527027 L6.69307642,4.7037973 C6.69307642,4.86737838 6.56433516,5.00001351 6.40555646,5.00001351" id="Fill-33" fill="#894590" mask="url(#mask-10)"></path>
                    </g>
                </g>
            </g>
        </g>
    </g>
</svg>