<svg width="16" height="16" viewBox="0 0 16 16" fill="none" xmlns="http://www.w3.org/2000/svg">
<path d="M13.9757 11.1815L13.1303 8.56956C13.0595 8.35097 12.9248 8.16105 12.745 8.02661C12.5652 7.89216 12.3495 7.81998 12.1283 7.82025H10.6387C11.1039 6.9062 11.4649 5.99266 11.4649 5.35475C11.4649 3.50463 10.0167 2 8.23663 2C6.45652 2 5.0079 3.50538 5.0079 5.35475C5.0079 5.99166 5.36916 6.90695 5.83435 7.82025H4.34444C4.12328 7.82003 3.90764 7.89224 3.72792 8.02668C3.54821 8.16112 3.41349 8.35101 3.34277 8.56956L2.05545 12.5479C2.00182 12.7136 1.98681 12.8902 2.01166 13.0631C2.03651 13.2359 2.10051 13.4002 2.19836 13.5421C2.29621 13.6841 2.42508 13.7996 2.5743 13.8793C2.72352 13.9589 2.88879 14.0003 3.05641 14H11.1936C11.326 14 11.4529 13.9452 11.5465 13.8476C11.6401 13.75 11.6927 13.6176 11.6927 13.4795C11.6927 13.3415 11.6401 13.2091 11.5465 13.1115C11.4529 13.0139 11.326 12.959 11.1936 12.959H3.05641C3.04703 12.9594 3.0377 12.9573 3.0293 12.953C3.02091 12.9486 3.01371 12.9421 3.0084 12.934C3.00292 12.9268 2.99936 12.9182 2.9981 12.9091C2.99683 12.9 2.9979 12.8907 3.0012 12.8822L4.28875 8.90303C4.29283 8.89105 4.30038 8.88068 4.31036 8.87337C4.32034 8.86606 4.33225 8.86217 4.34444 8.86223H6.40467C7.04701 9.96654 7.69751 10.8984 7.83577 11.0939C7.88212 11.1596 7.94263 11.213 8.01241 11.2498C8.08218 11.2865 8.15928 11.3057 8.23747 11.3057C8.31566 11.3057 8.39276 11.2865 8.46253 11.2498C8.53231 11.213 8.59282 11.1596 8.63917 11.0939C8.77743 10.8984 9.42769 9.96729 10.0698 8.86223H12.1291C12.1413 8.86206 12.1534 8.86593 12.1634 8.8733C12.1734 8.88067 12.181 8.89117 12.185 8.90329L13.0297 11.5147C13.0732 11.644 13.1639 11.7502 13.2819 11.8102C13.4 11.8702 13.536 11.8793 13.6605 11.8355C13.7849 11.7916 13.8878 11.6984 13.9468 11.576C14.0058 11.4536 14.0162 11.3118 13.9757 11.1815ZM8.23663 9.88868C7.24528 8.39982 6.00621 6.24501 6.00621 5.35475C6.00621 4.07794 7.00668 3.04048 8.23663 3.04048C9.46658 3.04048 10.4666 4.0787 10.4666 5.35475C10.4666 6.24426 9.22798 8.39907 8.23663 9.88868Z" fill="#523178"/>
<path d="M8.23681 3.56445C7.92543 3.56539 7.6213 3.66257 7.36284 3.84368C7.10437 4.0248 6.90316 4.28173 6.78463 4.58205C6.66609 4.88236 6.63554 5.21259 6.69684 5.531C6.75814 5.84942 6.90854 6.14174 7.12904 6.37105C7.34954 6.60037 7.63025 6.75638 7.93571 6.8194C8.24118 6.88241 8.55769 6.8496 8.84529 6.7251C9.13288 6.6006 9.37865 6.38999 9.55155 6.11989C9.72445 5.84979 9.81673 5.53232 9.81673 5.20755C9.81578 4.77126 9.64887 4.35319 9.35266 4.04513C9.05644 3.73707 8.65512 3.56419 8.23681 3.56445ZM8.23681 5.8094C8.12312 5.80827 8.01228 5.77206 7.91827 5.70535C7.82427 5.63864 7.75129 5.5444 7.70853 5.43452C7.66577 5.32463 7.65515 5.20401 7.678 5.08783C7.70085 4.97166 7.75614 4.86514 7.83693 4.78169C7.91771 4.69823 8.02036 4.64157 8.13196 4.61884C8.24356 4.59612 8.3591 4.60836 8.46405 4.654C8.56899 4.69964 8.65864 4.77666 8.7217 4.87534C8.78476 4.97402 8.81842 5.08996 8.81842 5.20855C8.81753 5.36862 8.7558 5.52178 8.64676 5.63442C8.53772 5.74707 8.39029 5.81 8.23681 5.8094Z" fill="#523178"/>
</svg>
