<svg width="16" height="16" viewBox="0 0 16 16" fill="none" xmlns="http://www.w3.org/2000/svg">
<path fill-rule="evenodd" clip-rule="evenodd" d="M3 7.24242C3 10.0005 7.09923 14.0901 7.56586 14.5455C7.91435 14.8856 8.3101 14.6665 8.43414 14.5455C8.45333 14.5256 8.47866 14.4996 8.50959 14.4678C9.23095 13.7271 13 9.85671 13 7.24242C13 4.36327 10.7643 2 8 2C5.23568 2 3 4.36327 3 7.24242ZM4.34919 7.18683C4.34919 5.03641 5.9635 3.31661 7.93252 3.31661C9.90154 3.31661 11.5159 5.03641 11.5159 7.18683C11.5159 8.8194 9.22565 11.5422 7.93252 12.8886C6.67012 11.5422 4.34919 8.79215 4.34919 7.18683ZM5.8412 6.94282C5.8412 8.06283 6.78717 8.98596 7.93489 8.98596C9.0826 8.98596 10.0286 8.06283 10.0286 6.94282C10.0286 5.82282 9.0826 4.89968 7.93489 4.89968C6.78717 4.89968 5.8412 5.82282 5.8412 6.94282Z" fill="#523178"/>
</svg>
