<svg width="16" height="16" viewBox="0 0 16 16" fill="none" xmlns="http://www.w3.org/2000/svg">
<path d="M11.4385 2.54256C9.80648 2.0067 8.92424 2.00429 8.1452 2.00214L7.6412 2C6.9392 2 6.06656 2.03912 4.58793 2.50907C2.76705 3.08779 2.00697 4.54345 2.00433 5.19398L2.00001 6.20005C1.99881 6.54836 2.11353 6.87631 2.31513 7.10217C2.50713 7.31651 2.76441 7.43119 3.05913 7.43119C3.09681 7.43119 3.13809 7.42663 3.17913 7.42234L2.63505 11.6763L2.62977 11.7596C2.63034 12.3517 2.84126 12.9195 3.21626 13.3383C3.59126 13.7571 4.09974 13.9927 4.63017 13.9936L11.1462 14C11.2864 14 11.4209 13.9378 11.52 13.8271C11.6192 13.7164 11.6749 13.5663 11.6749 13.4098C11.6749 13.2532 11.6192 13.1031 11.52 12.9924C11.4209 12.8817 11.2864 12.8195 11.1462 12.8195H11.1428C11.1427 12.8189 11.1427 12.8183 11.1428 12.8176H4.63137C4.38581 12.8173 4.14992 12.7108 3.97327 12.5204C3.79662 12.3299 3.69297 12.0705 3.68409 11.7966L4.27137 7.2072C4.72136 7.10271 5.18744 6.98616 5.48696 6.91087C6.3776 6.68742 6.36272 5.89595 6.35792 5.63606V5.50907C6.35578 5.41059 6.36027 5.31207 6.37136 5.21434C6.63896 5.13075 7.484 5.03456 8.00456 5.03456C8.50136 5.03697 9.36896 5.14361 9.63656 5.22988C9.64712 5.32765 9.65097 5.42618 9.64808 5.5246L9.64616 5.65107C9.63944 5.91122 9.61832 6.70295 10.5128 6.93712C10.8118 7.01536 11.2834 7.13834 11.7368 7.24792L12.3128 11.7491C12.3128 11.7532 12.3128 11.7569 12.3128 11.7609C12.3121 11.9172 12.367 12.0675 12.4656 12.1786C12.5641 12.2897 12.6981 12.3525 12.8382 12.3533C12.9782 12.3541 13.1128 12.2927 13.2123 12.1828C13.3118 12.0728 13.3681 11.9231 13.3688 11.7668C13.3705 11.7647 13.3715 11.7621 13.3717 11.7593L13.3676 11.7274C13.3659 11.6933 13.3617 11.6594 13.3549 11.6262L12.8269 7.47057C12.8646 7.47406 12.9037 7.47915 12.9385 7.47915C13.6299 7.47915 13.9945 6.86478 13.9962 6.25793L14 5.25185C14.0031 4.60186 13.2538 3.13897 11.4385 2.54256ZM12.944 6.25364C12.9438 6.27065 12.9417 6.28758 12.9378 6.30401C12.9244 6.30385 12.9111 6.30269 12.8979 6.30053C12.4256 6.22926 11.2527 5.92301 10.7458 5.79146C10.7254 5.7861 10.7091 5.78074 10.6964 5.77619C10.6964 5.74725 10.6964 5.7135 10.6978 5.68724C10.6978 5.65375 10.6995 5.62106 10.6998 5.58864V5.5372C10.7024 5.22211 10.7084 4.48424 10.1257 4.18282C9.66968 3.94677 8.32736 3.8613 7.988 3.8613C7.65656 3.8613 6.34256 3.93364 5.888 4.16299C5.30336 4.45771 5.30384 5.19612 5.30384 5.51094V5.56185C5.30384 5.594 5.30384 5.62695 5.30384 5.66071C5.30384 5.6875 5.30384 5.72019 5.30384 5.74913C5.28944 5.75395 5.27048 5.75985 5.24624 5.76601C4.74464 5.89193 3.57009 6.18612 3.09801 6.25257C3.08487 6.25442 3.07165 6.2554 3.05841 6.25552C3.05451 6.23908 3.05257 6.22214 3.05265 6.20514L3.05673 5.21783C3.09393 5.02331 3.52113 4.07002 4.87544 3.63946C6.224 3.21077 6.98096 3.17514 7.64048 3.17514L8.14112 3.17755C8.88512 3.17969 9.65312 3.18157 11.1397 3.67C12.4904 4.11369 12.9106 5.07127 12.9462 5.26632L12.944 6.25364Z" fill="#523178"/>
<path d="M9.10861 7.52734C8.96278 7.52729 8.82021 7.57552 8.69894 7.66593C8.57766 7.75634 8.48312 7.88486 8.42729 8.03526C8.37145 8.18565 8.35681 8.35115 8.38523 8.51083C8.41365 8.67051 8.48385 8.8172 8.58695 8.93233C8.69005 9.04747 8.82142 9.12589 8.96445 9.15767C9.10747 9.18945 9.25573 9.17316 9.39046 9.11087C9.52519 9.04858 9.64036 8.94309 9.72138 8.80773C9.8024 8.67237 9.84565 8.51322 9.84565 8.35042C9.84565 8.13217 9.768 7.92286 9.62979 7.76851C9.49158 7.61416 9.30411 7.52741 9.10861 7.52734Z" fill="#523178"/>
<path d="M6.89426 7.52734C6.74843 7.52729 6.60586 7.57552 6.48458 7.66593C6.36331 7.75634 6.26877 7.88486 6.21293 8.03526C6.15709 8.18565 6.14245 8.35115 6.17088 8.51083C6.1993 8.67051 6.2695 8.8172 6.3726 8.93233C6.4757 9.04747 6.60707 9.12589 6.75009 9.15767C6.89312 9.18945 7.04137 9.17316 7.17611 9.11087C7.31084 9.04858 7.426 8.94309 7.50703 8.80773C7.58805 8.67237 7.6313 8.51322 7.6313 8.35042C7.6313 8.13217 7.55365 7.92286 7.41544 7.76851C7.27722 7.61416 7.08976 7.52741 6.89426 7.52734Z" fill="#523178"/>
<path d="M9.10861 9.87891C8.96277 9.87885 8.82019 9.92709 8.69891 10.0175C8.57763 10.1079 8.48309 10.2365 8.42726 10.3869C8.37143 10.5373 8.35681 10.7028 8.38525 10.8625C8.41369 11.0222 8.48391 11.1689 8.58704 11.284C8.69016 11.3991 8.82156 11.4775 8.9646 11.5093C9.10764 11.541 9.2559 11.5247 9.39063 11.4624C9.52536 11.4 9.6405 11.2945 9.72149 11.1591C9.80249 11.0237 9.8457 10.8645 9.84565 10.7017C9.84565 10.5937 9.82659 10.4867 9.78955 10.3868C9.75251 10.287 9.69822 10.1963 9.62978 10.1199C9.56134 10.0435 9.48009 9.98289 9.39066 9.94154C9.30124 9.90019 9.2054 9.87891 9.10861 9.87891Z" fill="#523178"/>
<path d="M6.89426 9.87891C6.74842 9.87885 6.60584 9.92709 6.48456 10.0175C6.36328 10.1079 6.26874 10.2365 6.21291 10.3869C6.15707 10.5373 6.14245 10.7028 6.17089 10.8625C6.19933 11.0222 6.26956 11.1689 6.37268 11.284C6.47581 11.3991 6.6072 11.4775 6.75024 11.5093C6.89328 11.541 7.04154 11.5247 7.17627 11.4624C7.311 11.4 7.42615 11.2945 7.50714 11.1591C7.58814 11.0237 7.63135 10.8645 7.6313 10.7017C7.6313 10.4835 7.55365 10.2742 7.41542 10.1199C7.2772 9.9656 7.08973 9.87891 6.89426 9.87891Z" fill="#523178"/>
</svg>
