<svg width="41" height="40" viewBox="0 0 41 40" fill="none" xmlns="http://www.w3.org/2000/svg">
<path fill-rule="evenodd" clip-rule="evenodd" d="M30.4558 3.64731C30.8742 3.22889 31.5526 3.22889 31.971 3.64731C32.3371 4.01343 32.3829 4.57858 32.1083 4.99446L31.971 5.16254L26.7979 10.3356C26.2811 10.8523 25.9584 11.5269 25.8768 12.246L25.8562 12.6087V13.6036C25.8563 14.0775 25.6994 14.5353 25.4145 14.9072L25.2284 15.1195L24.471 15.8768C24.0526 16.2952 23.3742 16.2952 22.9558 15.8768C22.5896 15.5107 22.5439 14.9455 22.8185 14.5297L22.9558 14.3616L23.7134 13.604V12.6087C23.7134 11.3456 24.1595 10.1285 24.9643 9.16803L25.2828 8.8203L30.4558 3.64731ZM9.76849 17.1063C5.92415 13.2619 4.67082 7.52323 7.52346 4.69772C7.94245 4.28271 8.61805 4.28432 9.03506 4.70133L33.7067 29.373C34.9823 30.6487 35.1011 32.6705 33.9599 34.1349L33.7065 34.4188C32.3131 35.8114 30.0548 35.8114 28.6547 34.4121L22.6286 28.2822C22.037 27.6814 21.7051 26.8723 21.7045 26.0284V25.6578C21.7045 25.3712 21.5897 25.0965 21.4115 24.9198L20.6337 24.2015C20.405 23.9905 20.0962 23.8897 19.8652 23.9127L19.6353 23.9526C18.1517 24.3398 16.574 23.9118 15.4892 22.8277L9.76849 17.1063ZM8.42803 7.12492L8.36602 7.27599C7.56846 9.42133 8.67215 12.9795 11.2838 15.5911L17.0042 21.3122C17.551 21.8586 18.3463 22.0743 19.1691 21.8624L19.5507 21.7944C20.4746 21.6913 21.4006 21.9935 22.0871 22.6269L22.8911 23.3701C23.5031 23.9742 23.8475 24.7983 23.8473 25.6581V26.0276C23.8475 26.3086 23.9581 26.5783 24.156 26.7793L30.1761 32.9031C30.7328 33.4595 31.635 33.4595 32.1459 32.9518L32.3109 32.7681C32.7482 32.2057 32.7007 31.3975 32.1915 30.8882L8.42803 7.12492ZM37.3281 9.00445C36.9097 8.58603 36.2313 8.58603 35.8129 9.00445L30.6399 14.1774L30.3689 14.4195C29.8027 14.8703 29.0975 15.1192 28.3667 15.1192H27.3716L27.0899 15.1378C26.6253 15.1993 26.1907 15.4121 25.8557 15.7473L25.0986 16.5045L24.9613 16.6725C24.6867 17.0884 24.7325 17.6536 25.0986 18.0197C25.517 18.4381 26.1954 18.4381 26.6139 18.0197L27.3715 17.2621H28.3667L28.8378 17.2413C30.0862 17.1312 31.2622 16.5858 32.1552 15.6926L37.3281 10.5197L37.4654 10.3516C37.74 9.93573 37.6943 9.37057 37.3281 9.00445ZM33.1343 6.32588C33.5528 5.90746 34.2311 5.90746 34.6496 6.32588C35.0157 6.692 35.0614 7.25716 34.7869 7.67303L34.6496 7.84111L29.2924 13.1983C28.874 13.6167 28.1956 13.6167 27.7772 13.1983C27.4111 12.8321 27.3653 12.267 27.6399 11.8511L27.7772 11.683L33.1343 6.32588ZM13.7592 23.4713C13.3422 23.0515 12.6638 23.0492 12.244 23.4662L6.60026 29.0725L6.34247 29.3577C5.13941 30.8326 5.22518 33.0048 6.59762 34.3776C8.06222 35.8418 10.436 35.8418 11.9003 34.3778L18.5803 27.6604L18.7171 27.492C18.9905 27.0753 18.9432 26.5103 18.576 26.1452C18.1564 25.7279 17.478 25.7298 17.0608 26.1494L10.3831 32.8646L10.1845 33.0334C9.55819 33.4835 8.67768 33.427 8.11285 32.8624C7.48568 32.235 7.48568 31.2177 8.11308 30.5901L13.7542 24.9865L13.892 24.8189C14.168 24.4039 14.1241 23.8386 13.7592 23.4713Z" fill="#523178"/>
</svg>
