<svg id="Capa_1" data-name="Capa 1" xmlns="http://www.w3.org/2000/svg" viewBox="0 0 430.18 384"><defs><style>.cls-1{fill:#523178;}.cls-2{fill:#fff;}</style></defs><circle class="cls-1" cx="359.12" cy="298.17" r="10.93"/><path class="cls-1" d="M359,358.45a59.13,59.13,0,1,1,59.13-59.12A59.19,59.19,0,0,1,359,358.45Zm0-94.25a35.13,35.13,0,1,0,35.13,35.13A35.16,35.16,0,0,0,359,264.2Z"/><path class="cls-1" d="M108.81,358.45a59.19,59.19,0,0,1-59.13-59.12,12,12,0,0,1,24,0,35.13,35.13,0,0,0,70.25,0,12,12,0,0,1,24,0A59.19,59.19,0,0,1,108.81,358.45Z"/><path class="cls-1" d="M181.74,307.92a12,12,0,0,1-12-12,58.93,58.93,0,0,0-117.86,0,12,12,0,0,1-24,0,82.93,82.93,0,0,1,165.86,0A12,12,0,0,1,181.74,307.92Z"/><path class="cls-1" d="M318.06,135.29H265.8a12,12,0,0,1-12-12V69a12,12,0,0,1,12-12h52.26a39.13,39.13,0,0,1,0,78.26Zm-40.26-24h40.26a15.13,15.13,0,0,0,0-30.26H277.8Z"/><path class="cls-1" d="M171.46,199.55H67c-21.58,0-39.13-16.55-39.13-36.9S45.43,125.74,67,125.74H171.46c21.09,0,45.14,24.06,45.14,45.17,0,11.17-6.81,20.17-18.68,24.69C191,198.23,182.14,199.55,171.46,199.55ZM67,149.74c-8.34,0-15.13,5.79-15.13,12.91S58.67,175.56,67,175.56H171.46c15.41,0,20.57-3.35,21.11-4.24a2.45,2.45,0,0,0,0-.41c0-7.11-12.85-21.17-21.14-21.17Z"/><path class="cls-1" d="M144.62,97.53H44.26a12,12,0,1,1,0-24H144.62a12,12,0,0,1,0,24Z"/><path class="cls-1" d="M252.68,110.25H226.45a12,12,0,0,1,0-24h26.23a12,12,0,0,1,0,24Z"/><path class="cls-1" d="M181.74,51.46H80.93a12,12,0,0,1,0-24H181.74a12,12,0,0,1,0,24Z"/><path class="cls-2" d="M334.54,207.25c67.81-7.39,69.16,44.95,69.16,44.95H334.54Z"/><path class="cls-1" d="M403.7,264.2H334.54a12,12,0,0,1-12-12V207.25a12,12,0,0,1,10.7-11.93c26.6-2.9,47.6,2.2,62.42,15.15,19.19,16.78,20,40.42,20,41.42a12,12,0,0,1-12,12.31Zm-57.16-24H388.4a34,34,0,0,0-8.76-11.85c-7.73-6.64-18.81-10-33.1-9.82Z"/><path class="cls-1" d="M311.89,311.33h-.07L39.18,309.75a12,12,0,0,1-11.75-9.91c-.37-2.08-8.68-51.28,18.2-87.92C60.56,191.57,83,179.3,112.45,175.45a12,12,0,0,1,3.12,23.8c-22.61,3-39.6,12-50.5,26.75-14.59,19.79-15.65,45.84-14.95,59.82L312,287.33a12,12,0,0,1-.07,24Z"/><path class="cls-1" d="M255.17,262.73H202.73a12,12,0,0,1-11.39-8.22l-21-63.17a12,12,0,0,1,22.78-7.57l18.26,55h43.46a2.32,2.32,0,0,1,.38,0,7.29,7.29,0,0,0,.76-.08V174.14a54.13,54.13,0,0,1,10.44-37.23c10.4-13.89,27.24-22.47,50.05-25.51a12,12,0,0,1,13.28,9.24l18.84,83.24a12,12,0,1,1-23.41,5.3l-16.27-71.91c-12.75,3.38-21.42,9.47-25.85,18.16a31.08,31.08,0,0,0-3.21,16.21,8.54,8.54,0,0,1,.13,1.76v66.24a21.85,21.85,0,0,1-6.64,16.28C266.88,262.14,258.24,262.73,255.17,262.73Zm.81-22.85Z"/></svg>