<svg width="39" height="38" viewBox="0 0 39 38" fill="none" xmlns="http://www.w3.org/2000/svg">
<path d="M31.6848 32.0644L30.0524 12.0134C30.0322 11.7308 29.8994 11.4666 29.6817 11.2757C29.4639 11.0848 29.1779 10.982 28.8832 10.9886C28.5886 10.9952 28.3079 11.1107 28.0996 11.3112C27.8913 11.5116 27.7715 11.7815 27.7651 12.0648C27.7651 12.1064 27.7686 12.1463 27.7722 12.1828L29.3054 31.0579H13.9001C13.6005 31.0592 13.3134 31.1734 13.1006 31.3761C12.8878 31.5787 12.7662 31.8535 12.762 32.1413C12.7586 32.2852 12.7854 32.4282 12.8406 32.5619C12.8959 32.6956 12.9785 32.8173 13.0836 32.9197C13.1915 33.0261 13.3207 33.1103 13.4636 33.167C13.6064 33.2238 13.7598 33.252 13.9143 33.2499H30.5473C30.8487 33.2487 31.1374 33.1334 31.3509 32.929C31.5644 32.7245 31.6854 32.4475 31.6877 32.1579C31.6883 32.1277 31.6866 32.0946 31.6848 32.0644Z" fill="#523178"/>
<path d="M13.4256 14.5426C13.2214 14.7018 13.0568 14.9029 12.9439 15.1311C12.831 15.3593 12.7726 15.6089 12.7729 15.8616C12.7729 16.3186 12.9618 16.7569 13.2981 17.0801C13.6344 17.4033 14.0905 17.5848 14.566 17.5848C15.0416 17.5848 15.4977 17.4033 15.834 17.0801C16.1702 16.7569 16.3592 16.3186 16.3592 15.8616C16.3589 15.609 16.3002 15.3596 16.1873 15.1315C16.0744 14.9034 15.9102 14.7022 15.7065 14.5426V13.198H24.5113V14.5426C24.3074 14.7021 24.1431 14.9032 24.0302 15.1313C23.9173 15.3595 23.8586 15.6089 23.8586 15.8616C23.8671 16.3134 24.0599 16.744 24.3954 17.0606C24.731 17.3772 25.1824 17.5546 25.6526 17.5546C26.1228 17.5546 26.5743 17.3772 26.9098 17.0606C27.2453 16.744 27.4381 16.3134 27.4466 15.8616C27.4463 15.609 27.3876 15.3596 27.2747 15.1315C27.1619 14.9034 26.9976 14.7022 26.7939 14.5426V11.1616C26.7905 9.47367 26.0959 7.85484 24.8603 6.65513C23.6248 5.45543 21.9476 4.77124 20.1914 4.75049C18.4351 4.72973 16.741 5.37408 15.4751 6.54423C14.2093 7.71438 13.4735 9.3163 13.4268 11.0037L11.3127 11.0071L11.2533 11.0025L11.1869 11.0071C10.9211 11.0324 10.673 11.1468 10.4861 11.3301C10.2992 11.5135 10.1854 11.7542 10.1645 12.0101L8.53516 32.0639C8.52271 32.2074 8.54007 32.3519 8.58621 32.489C8.63235 32.626 8.70636 32.7529 8.80395 32.8622C9.00124 33.0848 9.28222 33.2232 9.58541 33.2472H9.67501C9.96261 33.2455 10.2391 33.1405 10.4502 32.9528C10.6613 32.765 10.7916 32.5081 10.8154 32.2327L12.3617 13.1951H13.4256V14.5426ZM20.1098 6.93212C22.5194 6.93212 24.4229 8.70729 24.5077 11.0037H15.7089C15.7919 8.70729 17.6954 6.93212 20.1098 6.93212Z" fill="#523178"/>
</svg>
