<svg width="16" height="16" viewBox="0 0 16 16" fill="none" xmlns="http://www.w3.org/2000/svg">
<path d="M8.00174 0.718672C3.98469 0.718672 0.720612 3.98277 0.720625 7.99978C0.720612 12.0169 3.98469 15.2809 8.00174 15.2809C12.0188 15.2809 15.2829 12.0169 15.2828 7.99978C15.2829 3.98277 12.0188 0.718672 8.00174 0.718672ZM8.00174 1.76978C11.4467 1.76978 14.2317 4.5549 14.2317 7.99978C14.2317 11.4447 11.4467 14.2298 8.00174 14.2298C4.55681 14.2298 1.77172 11.4447 1.77174 7.99978C1.77172 4.5549 4.55681 1.76978 8.00174 1.76978Z" fill="#4F2D7F" stroke="#4F2D7F" stroke-width="0.34"/>
<path d="M7.29297 2.85344H7.12297V3.02344V8.71233V8.88233H7.29297H10.8485H11.0185V8.71233V8.00121V7.83121H10.8485H8.17408V3.02344V2.85344H8.00408H7.29297Z" fill="#4F2D7F" stroke="#4F2D7F" stroke-width="0.34"/>
</svg>
