<?xml version="1.0" encoding="UTF-8"?>
<svg width="136px" height="32px" viewBox="0 0 136 32" version="1.1" xmlns="http://www.w3.org/2000/svg" xmlns:xlink="http://www.w3.org/1999/xlink">
    <!-- Generator: Sketch 47 (45396) - http://www.bohemiancoding.com/sketch -->
    <title>Page 1</title>
    <desc>Created with Sketch.</desc>
    <defs>
        <path d="M50.3979587,0.137451919 L0.335770368,0.137451919 C0.195594389,0.137451919 0.0819323164,0.239951778 0.0819323164,0.366603903 L0.0819323164,3.91796876 C0.0819323164,4.04462088 0.195594389,4.14712074 0.335770368,4.14712074 L50.3979587,4.14712074 L50.3979587,0.137451919 L50.3979587,0.137451919 Z" id="path-1"></path>
        <path d="M0.176404406,0.137451919 L30.8243718,0.137451919 C30.8297516,0.137451919 30.8350923,0.137603075 30.8403888,0.137900939 L30.8403888,4.14664751 C30.8349497,4.1469614 30.829464,4.14712074 30.8239371,4.14712074 L0.176404406,4.14712074 L0.176404406,0.137451919 L0.176404406,0.137451919 Z" id="path-3"></path>
        <path d="M0.196985283,0.137451919 L21.4793065,0.137451919 C21.6192652,0.137451919 21.7327099,0.239755418 21.7327099,0.366014823 L21.7327099,3.91796876 C21.7327099,4.04462088 21.6190479,4.14712074 21.4788719,4.14712074 L0.196985283,4.14712074 L0.196985283,0.137451919 L0.196985283,0.137451919 Z" id="path-5"></path>
    </defs>
    <g id="Symbols" stroke="none" stroke-width="1" fill="none" fill-rule="evenodd">
        <g id="Bar/Home" transform="translate(-101.000000, -39.000000)">
            <g id="logo_banco-ripley" transform="translate(95.000000, 42.000000)">
                <g id="Page-1" transform="translate(6.842105, -2.736842)">
                    <g id="Group-25" fill="#4F2D7F">
                        <path d="M5.34855722,16.2234546 C5.92058955,16.2234546 6.43790192,16.1263321 6.90642782,15.9298749 C7.37407469,15.7331964 7.77425558,15.4557669 8.10762978,15.1006836 C8.44078422,14.7425031 8.6968033,14.3126422 8.87942292,13.809331 C9.0622623,13.3086747 9.15302271,12.7491697 9.15302271,12.1365682 C9.15302271,11.5237454 9.0622623,10.9662315 8.87942292,10.4622567 C8.6968033,9.96160037 8.44078422,9.53196071 8.10762978,9.17378017 C7.77425558,8.8160421 7.37407469,8.53993999 6.90642782,8.34414643 C6.43790192,8.14879534 5.92058955,8.0505667 5.34855722,8.0505667 C5.0793526,8.0505667 4.80882944,8.07158409 4.54050386,8.11494628 C4.26954118,8.15764477 4.03286088,8.1956973 3.82782586,8.22954636 C3.57312534,8.29790818 3.32831396,8.36560629 3.08965583,8.4333044 L3.08965583,15.8402744 C3.32831396,15.908415 3.57312534,15.9681486 3.82782586,16.0192541 C4.04868352,16.0876159 4.29151707,16.1380576 4.55083253,16.1719067 C4.8127851,16.2070832 5.0793526,16.2234546 5.34855722,16.2234546 L5.34855722,16.2234546 Z M3.08965583,5.62471765 C3.32831396,5.55635583 3.57312534,5.48777277 3.82782586,5.41941095 C4.04868352,5.36874798 4.29151707,5.32627074 4.55083253,5.29109427 C4.8127851,5.25813015 5.0793526,5.2404313 5.34855722,5.2404313 C6.3941699,5.2404313 7.34594555,5.41941095 8.20234585,5.77737026 C9.05874616,6.13422338 9.79515812,6.62337543 10.4137793,7.24482642 C11.0304227,7.86760481 11.5112551,8.59878868 11.8516616,9.44236027 C12.1931669,10.2859319 12.3645788,11.1832637 12.3645788,12.1365682 C12.3645788,13.0909788 12.1931669,13.9880895 11.8516616,14.8321035 C11.5112551,15.6739052 11.0304227,16.4066377 10.4137793,17.0280887 C9.79515812,17.6508671 9.05874616,18.1393555 8.20234585,18.4962086 C7.34594555,18.8541679 6.3941699,19.0333688 5.34855722,19.0333688 C4.66730473,19.0333688 4.0060503,18.9734139 3.36347538,18.8541679 C2.72133997,18.7347006 2.14645078,18.5988619 1.63968683,18.4451031 C1.06831378,18.2924505 0.521993235,18.1059489 6.59276599e-05,17.883607 L6.59276599e-05,0.754878209 C6.59276599e-05,0.693374695 0.0453362541,0.64359667 0.103132836,0.64359667 L2.98549013,0.64359667 C3.04240767,0.64359667 3.08965583,0.693374695 3.08965583,0.754878209 L3.08965583,5.62471765 Z" id="Fill-1"></path>
                        <path d="M51.9367996,17.4817324 C51.9616323,17.5321742 51.9504246,17.5936777 51.9095495,17.626863 C51.5774938,17.8919034 51.2056618,18.1281831 50.7929547,18.3334898 C50.3800278,18.5381327 49.9139192,18.7171124 49.3904536,18.869765 C48.8667682,19.02463 48.2641894,19.0998501 47.5827172,19.0998501 C46.5357859,19.0998501 45.5855486,18.9210917 44.728489,18.5633536 C43.874506,18.2053943 43.1367755,17.7166847 42.517495,17.0950125 C41.9006319,16.4742252 41.4204588,15.7421564 41.0796128,14.899691 C40.7387668,14.0552345 40.5680141,13.1583451 40.5680141,12.2037132 C40.5680141,11.2515149 40.7387668,10.3521919 41.0796128,9.50928405 C41.4204588,8.66681865 41.9006319,7.93474983 42.517495,7.3117502 C43.1367755,6.69184787 43.874506,6.20225335 44.728489,5.84429404 C45.5855486,5.48633474 46.5357859,5.30735509 47.5827172,5.30735509 C48.2316651,5.30735509 48.818641,5.38014162 49.3418869,5.52527222 C49.8653525,5.66885416 50.3180558,5.82681643 50.6969201,5.99694665 C51.0938046,6.20225335 51.4542091,6.42083418 51.7825289,6.65490152 C51.8286782,6.68875057 51.8414242,6.75313015 51.816152,6.80357188 L50.727027,8.90641687 C50.6982386,8.96415938 50.6305529,8.98097329 50.5815466,8.94646053 C50.3675015,8.80221487 50.1376337,8.67080089 49.8901853,8.55221857 C49.6192226,8.43341502 49.314417,8.33164661 48.9724722,8.24558594 C48.6320657,8.1597465 48.2492458,8.11749049 47.8211555,8.11749049 C47.249343,8.11749049 46.7184055,8.22810832 46.2283433,8.45045017 C45.7363032,8.6721283 45.3073339,8.96969027 44.9429737,9.3426936 C44.5777344,9.71835176 44.2927072,10.1519737 44.0876721,10.6464354 C43.8819778,11.1402334 43.7782517,11.6583673 43.7782517,12.2037132 C43.7782517,12.7490591 43.8819778,13.2687417 44.0876721,13.7623185 C44.2927072,14.2554528 44.5777344,14.6906233 44.9429737,15.0647328 C45.3073339,15.4401697 45.7363032,15.7381742 46.2283433,15.9583037 C46.7184055,16.1793181 47.249343,16.2903784 47.8211555,16.2903784 C48.2786935,16.2903784 48.6916204,16.2388305 49.0570794,16.1368408 C49.4223186,16.0355149 49.7310798,15.9171538 49.9846816,15.780209 C50.2470737,15.6474676 50.4839737,15.5012308 50.6969201,15.3421623 C50.7481239,15.3030036 50.8182269,15.3207025 50.8489932,15.3788875 L51.9367996,17.4817324 Z" id="Fill-3"></path>
                        <path d="M62.2002199,12.2036247 C62.2002199,11.5905807 62.10902,11.0346155 61.9259608,10.5306406 C61.7450993,10.0286569 61.4978705,9.59901724 61.1893291,9.24061546 C60.8812272,8.8828774 60.516867,8.60743899 60.0953695,8.41230914 C59.6758498,8.21585187 59.2275417,8.117402 58.7526428,8.117402 C58.2770846,8.117402 57.8285568,8.21585187 57.4090371,8.41230914 C56.9881989,8.60743899 56.625377,8.8828774 56.3157367,9.24061546 C56.0054372,9.59901724 55.7597468,10.0286569 55.578226,10.5306406 C55.3956063,11.0346155 55.3048459,11.5905807 55.3048459,12.2036247 C55.3048459,12.8175537 55.3956063,13.3757313 55.578226,13.8763876 C55.7597468,14.3796987 56.0054372,14.8100021 56.3157367,15.1681826 C56.625377,15.5261419 56.9881989,15.8015803 57.4090371,15.9967102 C57.8285568,16.19184 58.2770846,16.2905111 58.7526428,16.2905111 C59.2275417,16.2905111 59.6758498,16.19184 60.0953695,15.9967102 C60.516867,15.8015803 60.8812272,15.5261419 61.1893291,15.1681826 C61.4978705,14.8100021 61.7450993,14.3796987 61.9259608,13.8763876 C62.10902,13.3757313 62.2002199,12.8175537 62.2002199,12.2036247 M52.0948282,12.2036247 C52.0948282,11.250099 52.263603,10.3536521 52.604449,9.50919556 C52.9466135,8.66584521 53.4144802,7.93466134 54.0093674,7.31188294 C54.6038152,6.69175938 55.3048459,6.20216485 56.113119,5.84442679 C56.922491,5.48646748 57.8013067,5.30726659 58.7526428,5.30726659 C59.7022209,5.30726659 60.5876293,5.48646748 61.4033742,5.84442679 C62.2202179,6.20216485 62.9263032,6.69175938 63.5200916,7.31188294 C64.1138801,7.93466134 64.5775713,8.66584521 64.911385,9.50919556 C65.2447592,10.3536521 65.4097981,11.250099 65.4097981,12.2036247 C65.4097981,13.1582566 65.2447592,14.055146 64.911385,14.8998238 C64.5775713,15.7407405 64.1138801,16.474358 63.5200916,17.094924 C62.9263032,17.7165962 62.2202179,18.206412 61.4033742,18.5632651 C60.5876293,18.9210032 59.7022209,19.0999828 58.7526428,19.0999828 C57.8013067,19.0999828 56.922491,18.9210032 56.113119,18.5632651 C55.3048459,18.206412 54.6038152,17.7165962 54.0093674,17.094924 C53.4144802,16.474358 52.9466135,15.7407405 52.604449,14.8998238 C52.263603,14.055146 52.0948282,13.1582566 52.0948282,12.2036247" id="Fill-5"></path>
                        <path d="M77.9730609,8.11485779 C77.7029773,8.11485779 77.4445408,8.14516707 77.1995097,8.20445823 C76.95316,8.26640422 76.7432903,8.32016448 76.5690215,8.36839386 C76.3490429,8.46286149 76.1415905,8.55976271 75.9512793,8.65688516 L75.9512793,18.4748815 C75.9512793,18.5368275 75.9042509,18.5866055 75.8475531,18.5866055 L72.9660749,18.5866055 C72.9071795,18.5866055 72.8601511,18.5368275 72.8601511,18.4748815 L72.8601511,6.45559031 C73.3045035,6.23501835 73.7877533,6.03833984 74.3114387,5.86798838 C74.7876561,5.7142296 75.3091439,5.58215191 75.8791984,5.47153407 C76.451011,5.36113748 77.0685334,5.30627103 77.7352818,5.30627103 C78.3211589,5.30627103 78.8556125,5.35737647 79.339961,5.45958735 C79.8234306,5.56135575 80.2469059,5.68060178 80.6128044,5.81666171 C81.0066123,5.95891624 81.3672366,6.11422368 81.6953366,6.2843539 C81.7419255,6.30935353 81.7658792,6.36775975 81.7489577,6.42085631 L80.986834,8.8978108 C80.9655174,8.9672788 80.8903599,8.99603944 80.8338818,8.95931432 C80.6224738,8.82192697 80.3912875,8.69560141 80.1361474,8.57480673 C79.8509004,8.45157847 79.529613,8.34649153 79.1731641,8.25313008 C78.8171547,8.16109604 78.4167541,8.11485779 77.9730609,8.11485779" id="Fill-7"></path>
                        <path d="M83.407368,5.8160865 L86.2888463,5.8160865 C86.3466429,5.8160865 86.3927922,5.86785564 86.3927922,5.92913792 L86.3927922,18.47497 C86.3927922,18.5369159 86.3466429,18.586694 86.2888463,18.586694 L83.4548359,18.586694 C83.3702288,18.586694 83.3029826,18.5141287 83.3029826,18.4236433 L83.3029826,5.92913792 C83.3029826,5.86785564 83.3478134,5.8160865 83.407368,5.8160865 M82.9463139,2.11392889 C82.9463139,1.60287451 83.1278347,1.155536 83.4926345,0.771249649 C83.8567749,0.388290714 84.3088189,0.197585572 84.8485467,0.197585572 C85.3856373,0.197585572 85.8383406,0.388290714 86.2022613,0.771249649 C86.5681598,1.155536 86.7507794,1.60287451 86.7507794,2.11392889 C86.7507794,2.62321339 86.5681598,3.07077314 86.2022613,3.45417455 C85.8383406,3.83757595 85.3856373,4.0289448 84.8485467,4.0289448 C84.3088189,4.0289448 83.8567749,3.83757595 83.4926345,3.45417455 C83.1278347,3.07077314 82.9463139,2.62321339 82.9463139,2.11392889" id="Fill-9"></path>
                        <path d="M94.4182761,8.05047821 C94.1470937,8.05047821 93.8785484,8.07171683 93.6078054,8.11353037 C93.3390404,8.15645009 93.1001625,8.19428139 92.8949077,8.2296791 C92.6426245,8.29627103 92.3953958,8.36485409 92.159155,8.43321591 L92.159155,15.8401859 C92.3953958,15.9085478 92.6426245,15.9665115 92.8949077,16.0178382 C93.1164246,16.0875274 93.3601372,16.1381904 93.6198922,16.1704908 C93.8822843,16.2069947 94.1470937,16.2233661 94.4182761,16.2233661 C94.9878911,16.2233661 95.5063023,16.1242525 95.9748282,15.9297864 C96.4422553,15.7344353 96.842656,15.457227 97.1760302,15.0992677 C97.5091846,14.7413084 97.7652037,14.3114475 97.9480431,13.8079151 C98.1295639,13.3074801 98.2216428,12.7490812 98.2216428,12.1367009 C98.2216428,11.5225507 98.1295639,10.9663643 97.9480431,10.4634956 C97.7652037,9.96062693 97.5091846,9.5305448 97.1760302,9.1725855 C96.842656,8.81595361 96.4422553,8.5398515 95.9748282,8.34405794 C95.5063023,8.14737943 94.9878911,8.05047821 94.4182761,8.05047821 M92.0532312,23.373924 L89.1724122,23.373924 C89.1143959,23.373924 89.0667082,23.3225973 89.0667082,23.2619788 L89.0667082,6.46709456 C89.0667082,6.4201926 89.0941781,6.37882153 89.1339544,6.36134391 C89.637422,6.1516125 90.1613271,5.96511084 90.7080872,5.80228139 C91.2464964,5.64918631 91.8297365,5.51644491 92.4564887,5.40582708 C93.0817027,5.29476678 93.7354853,5.24056404 94.4182761,5.24056404 C95.4638888,5.24056404 96.4139064,5.41932246 97.2705265,5.77617558 C98.1256082,6.13435612 98.8642178,6.62350818 99.4834983,7.24473792 C100.100142,7.86641014 100.578557,8.59980636 100.920721,9.44094436 C101.261567,10.2847372 101.431661,11.1831752 101.431661,12.1367009 C101.431661,13.0895629 101.261567,13.9868948 100.920721,14.8306876 C100.578557,15.6751441 100.100142,16.4052218 99.4834983,17.0280002 C98.8642178,17.6496724 98.1256082,18.1394882 97.2705265,18.4963413 C96.4139064,18.8540794 95.4638888,19.0335015 94.4182761,19.0335015 C94.1470937,19.0335015 93.8785484,19.0107142 93.6078054,18.9680158 C93.3390404,18.9262022 93.1001625,18.8872647 92.8949077,18.8540794 C92.6426245,18.7852751 92.3953958,18.7171345 92.159155,18.6501001 L92.159155,23.2619788 C92.159155,23.3225973 92.1121266,23.373924 92.0532312,23.373924" id="Fill-11"></path>
                        <path d="M103.777784,18.5866055 C103.719328,18.5866055 103.673399,18.5357213 103.673399,18.4748815 L103.673399,3.38992771 L103.664608,0.822487828 C103.664608,0.758993193 103.713175,0.708330226 103.771631,0.708330226 L106.659922,0.708330226 C106.718378,0.708330226 106.764307,0.758993193 106.764307,0.822487828 L106.764307,18.4748815 C106.764307,18.5357213 106.718378,18.5866055 106.659922,18.5866055" id="Fill-13"></path>
                        <path d="M106.659966,18.5866055 L103.777828,18.5866055" id="Fill-15"></path>
                        <path d="M118.007391,10.9870277 C117.881029,10.1531905 117.547655,9.45474946 117.009246,8.89303211 C116.469518,8.33020858 115.812219,8.04923929 115.034932,8.04923929 C114.258964,8.04923929 113.595292,8.33020858 113.049191,8.89303211 C112.50331,9.45474946 112.16642,10.1531905 112.0383,10.9870277 L118.007391,10.9870277 Z M119.749639,13.6690676 L112.0383,13.6690676 C112.291902,14.3672874 112.710982,14.9679422 113.299057,15.4697047 C113.886033,15.9714672 114.741554,16.2234546 115.8665,16.2234546 C116.344036,16.2234546 116.770588,16.1719067 117.15121,16.0699171 C117.531393,15.9681486 117.857076,15.8491239 118.125401,15.7117365 C118.401638,15.5792164 118.646669,15.4329796 118.863351,15.2732474 C118.915434,15.2351949 118.984658,15.2524513 119.014546,15.3106363 L120.102352,17.4121538 C120.127404,17.463038 120.114878,17.5254265 120.071586,17.5586118 C119.725685,17.8247583 119.339349,18.0605956 118.911479,18.2659023 C118.498552,18.471209 118.018818,18.6501886 117.471619,18.8028412 C116.924639,18.9543876 116.311731,19.0333688 115.62916,19.0333688 C114.583548,19.0333688 113.636167,18.8572652 112.787019,18.5101464 C111.940288,18.1601516 111.214205,17.6785216 110.612505,17.0654775 C110.010365,16.452876 109.546674,15.7243469 109.220992,14.8818815 C108.895089,14.0391949 108.732468,13.1235005 108.732468,12.1365682 C108.732468,11.1153444 108.886738,10.1817299 109.197477,9.34014939 C109.506898,8.4965778 109.94246,7.76804876 110.505482,7.15566844 C111.067406,6.54284565 111.733715,6.06940133 112.50331,5.7373266 C113.270708,5.40569434 114.115022,5.2404313 115.034932,5.2404313 C115.954843,5.2404313 116.797838,5.40569434 117.567433,5.7373266 C118.33593,6.06940133 119.00092,6.54284565 119.564382,7.15566844 C120.127404,7.76804876 120.562527,8.4965778 120.873266,9.34014939 C121.176753,10.1695619 121.332123,11.0837077 121.335858,12.085684 C121.335858,12.1164357 121.323332,12.1478512 121.301137,12.1715234 L119.82172,13.6389796 C119.801722,13.6580058 119.77579,13.6690676 119.749639,13.6690676 L119.749639,13.6690676 Z" id="Fill-17"></path>
                        <path d="M135.151593,17.4866881 C135.151593,18.2532697 135.001058,18.9893208 134.700208,19.6950625 C134.39826,20.401468 133.954566,21.0277862 133.368909,21.5729108 C132.781713,22.118478 132.072112,22.5523211 131.240105,22.8764314 C130.408318,23.1987717 129.453246,23.3600525 128.374229,23.3600525 C127.66309,23.3600525 127.020295,23.2793015 126.448483,23.1191269 C125.877989,22.9567399 125.395178,22.7824062 124.998733,22.5947984 C124.523834,22.3731202 124.102337,22.118478 123.737757,21.8282168 L124.875668,19.6300192 C124.902699,19.5747103 124.969066,19.5556841 125.018731,19.5895331 C125.281123,19.7523626 125.5756,19.903024 125.902602,20.0408539 C126.219494,20.177135 126.584074,20.2966023 126.995462,20.3988132 C127.408389,20.5008028 127.867246,20.5514658 128.374229,20.5514658 C129.183821,20.5514658 129.829033,20.4076626 130.312722,20.1178439 C130.79773,19.8282464 131.164068,19.5036937 131.419208,19.1459556 C131.718959,18.7371121 131.932565,18.2696411 132.059805,17.7413304 L132.059805,17.4866881 C131.776097,17.5377936 131.489971,17.5800496 131.203845,17.6150048 C130.935519,17.6481902 130.649613,17.6784994 130.348983,17.7032778 C130.046814,17.7289412 129.744426,17.7413304 129.444895,17.7413304 C128.430488,17.7413304 127.533872,17.5977484 126.758123,17.3077085 C125.981055,17.0178898 125.323097,16.6165683 124.784688,16.107505 C124.2454,15.5966718 123.836429,14.9915923 123.558873,14.2931513 C123.284394,13.5951528 123.143749,12.8285712 123.143749,11.9951765 L123.143749,5.34018646 C123.143749,5.27669182 123.190997,5.22536515 123.249453,5.22536515 L126.130272,5.22536515 C126.188728,5.22536515 126.235976,5.27669182 126.235976,5.34018646 L126.235976,11.9951765 C126.235976,12.8285712 126.516828,13.5281184 127.08007,14.089172 C127.642213,14.6504469 128.430488,14.9314162 129.444895,14.9314162 C129.778269,14.9314162 130.097578,14.9101776 130.408318,14.8681428 C130.716639,14.8258868 130.999029,14.7789848 131.252631,14.7278794 C131.537439,14.676774 131.808182,14.6172616 132.059805,14.549121 L132.059805,5.34018646 C132.059805,5.27669182 132.107933,5.22536515 132.166388,5.22536515 L135.047207,5.22536515 C135.104345,5.22536515 135.151593,5.27669182 135.151593,5.34018646 L135.151593,17.4866881 Z" id="Fill-19"></path>
                        <path d="M26.9913773,18.354131 L26.9913773,6.62244624 C26.9913773,6.52266896 27.0504924,6.43461717 27.1366379,6.40364417 C27.677904,6.20475331 28.2391682,6.02577366 28.8221884,5.86913881 C29.4091644,5.71670744 30.0295436,5.58595716 30.6872819,5.47401191 C31.3445807,5.36494273 32.0144057,5.30720022 32.6965372,5.30720022 C33.7096256,5.30720022 34.6097579,5.45210958 35.3929785,5.74126459 C36.179056,6.03218949 36.8354757,6.43196234 37.3677317,6.94213178 C37.8973506,7.45274369 38.3021464,8.05671706 38.5797018,8.75493681 C38.8544004,9.45382027 38.9943868,10.2190744 38.9943868,11.0518055 L38.9943868,18.354131 C38.9943868,18.4811203 38.899451,18.58311 38.7814405,18.58311 L36.117963,18.58311 C36.0012711,18.58311 35.9041377,18.4811203 35.9041377,18.354131 L35.9041377,11.0518055 C35.9041377,10.2190744 35.6232858,9.51930603 35.0611426,8.95935856 C34.4979007,8.39719874 33.7096256,8.11622945 32.6965372,8.11622945 C32.3644816,8.11622945 32.0431941,8.14742368 31.7326749,8.20693607 C31.4307262,8.26556352 31.152951,8.31910255 30.9035246,8.36578328 C30.8936355,8.36688946 30.8850649,8.36954428 30.8751758,8.37330529 C30.6481648,8.44918912 30.4321419,8.5259579 30.2235907,8.60383285 C30.137665,8.63546955 30.082945,8.72130899 30.082945,8.81931639 L30.082945,18.354131 C30.082945,18.4811203 29.9862511,18.58311 29.8682406,18.58311 L27.2047632,18.58311 C27.0878515,18.58311 26.9913773,18.4811203 26.9913773,18.354131" id="Fill-21"></path>
                        <path d="M21.9131015,15.8202969 C21.6586208,15.8886587 21.3808455,15.9486135 21.0795561,15.9992765 C20.8266137,16.0499395 20.5369715,16.0972839 20.2132667,16.1399824 C19.8869248,16.1833446 19.5423429,16.204362 19.1775432,16.204362 C18.163356,16.204362 17.4541941,16.0377715 17.0491785,15.7054755 C16.6463605,15.3729583 16.4439626,14.9875658 16.4439626,14.5439883 C16.4439626,14.101517 16.6463605,13.7136909 17.0491785,13.3807312 C17.4541941,13.0490989 18.163356,12.8825085 19.1775432,12.8825085 C19.5423429,12.8825085 19.8829691,12.8955614 20.2005207,12.9207822 C20.518292,12.9468881 20.8105713,12.9769761 21.0795561,13.0103827 C21.3808455,13.0453379 21.6586208,13.0871515 21.9131015,13.1386994 L21.9131015,15.8202969 Z M25.00401,10.8391759 C25.00401,9.10313962 24.5128489,7.73369086 23.528549,6.72817477 C22.5462268,5.72420733 21.0955985,5.2215599 19.1775432,5.2215599 C18.4655244,5.2215599 17.8339374,5.2885943 17.2869576,5.42576041 C16.7404173,5.56204158 16.261343,5.72420733 15.8490754,5.91004528 C15.4245012,6.1142458 15.0539878,6.33304787 14.7381943,6.56800015 C14.6920449,6.60030055 14.681057,6.66335272 14.70567,6.71578557 L15.7985308,8.82703751 C15.8273192,8.88146149 15.8881924,8.90026652 15.9389567,8.87172712 C16.2006896,8.72261428 16.4874749,8.58611188 16.7993127,8.46421102 C17.1012614,8.36200015 17.4541941,8.26465646 17.8587702,8.17085253 C18.2631265,8.07815479 18.7030838,8.02926171 19.1775432,8.02926171 C20.129099,8.02926171 20.8215592,8.23434717 21.2586596,8.64319068 C21.6944415,9.05181295 21.9131015,9.61397277 21.9131015,10.3283427 C21.6744434,10.2770161 21.4127106,10.2365299 21.1276833,10.2004685 C20.8738618,10.1681681 20.5809233,10.1369739 20.2484281,10.1106468 C19.9150539,10.0874171 19.5583853,10.0748067 19.1775432,10.0748067 C18.1317107,10.0748067 17.2350945,10.1878581 16.4912108,10.4179432 C15.7462282,10.647807 15.1324417,10.9586431 14.6478734,11.3511152 C14.1637446,11.7429236 13.807955,12.210837 13.5787465,12.755298 C13.3479997,13.2997589 13.2337251,13.8964315 13.2337251,14.5439883 C13.2337251,15.1731825 13.3479997,15.7656516 13.5787465,16.3182983 C13.807955,16.8727149 14.1637446,17.3443893 14.6478734,17.7350915 C15.1324417,18.1282273 15.7462282,18.4388422 16.4912108,18.6689273 C17.2350945,18.8987911 18.1317107,19.0144974 19.1775432,19.0144974 C19.9548303,19.0144974 20.6833309,18.9706927 21.3650229,18.8861807 C21.9906764,18.8065358 22.5671039,18.7131744 23.0980413,18.607645 L25.00401,16.7921851 L25.00401,10.8391759 Z" id="Fill-23"></path>
                    </g>
                    <g id="Group-35" transform="translate(73.438596, 27.153767)">
                        <g id="Group-28">
                            <mask id="mask-2" fill="white">
                                <use xlink:href="#path-1"></use>
                            </mask>
                            <g id="Clip-27"></g>
                            <path d="M49.4451967,14.5306314 L-8.75021926,14.5306314 C-9.27636817,14.5306314 -9.70276394,14.1453733 -9.70276394,13.669986 L-9.70276394,-2.38459443 C-9.70276394,-2.85978535 -9.27615084,-3.2452398 -8.75000194,-3.2452398 L49.445414,-3.2452398 C49.971563,-3.2452398 50.3979587,-2.85998171 50.3979587,-2.38479079 L50.3979587,13.6697897 C50.3979587,14.1451769 49.9713456,14.5306314 49.4451967,14.5306314" id="Fill-26" fill="#E22D36" mask="url(#mask-2)"></path>
                        </g>
                        <g id="Group-31" transform="translate(30.643121, 0.000000)">
                            <mask id="mask-4" fill="white">
                                <use xlink:href="#path-3"></use>
                            </mask>
                            <g id="Clip-30"></g>
                            <path d="M30.8403888,14.5306314 L1.02724,14.5306314 C0.557596139,14.5306314 0.176404406,13.7247704 0.176404406,12.7313858 L0.176404406,-1.44560146 C0.176404406,-2.43937883 0.557596139,-3.2452398 1.02724,-3.2452398 L30.8403888,-3.2452398" id="Fill-29" fill="#F2AD4B" mask="url(#mask-4)"></path>
                        </g>
                        <g id="Group-34" transform="translate(39.988186, 0.000000)">
                            <mask id="mask-6" fill="white">
                                <use xlink:href="#path-5"></use>
                            </mask>
                            <g id="Clip-33"></g>
                            <path d="M21.2262074,14.5306314 L1.14931263,14.5306314 C0.623381051,14.5306314 0.196985283,14.1453733 0.196985283,13.6701824 L0.196985283,-2.38459443 C0.196985283,-2.85978535 0.623598379,-3.2452398 1.14974729,-3.2452398 L21.2262074,-3.2452398 C21.7523563,-3.2452398 22.1789694,-2.85978535 22.1789694,-2.38459443 L22.1789694,13.6697897 C22.1789694,14.1451769 21.7523563,14.5306314 21.2262074,14.5306314" id="Fill-32" fill="#894590" mask="url(#mask-6)"></path>
                        </g>
                    </g>
                </g>
            </g>
        </g>
    </g>
</svg>