<svg width="24" height="24" viewBox="0 0 24 24" fill="none" xmlns="http://www.w3.org/2000/svg">
<path fill-rule="evenodd" clip-rule="evenodd" d="M16.0896 11.0872H12.9099V7.91051C12.9099 7.40768 12.5041 7 12.0012 7C11.4983 7 11.0928 7.40768 11.0928 7.91073V11.0894H7.91151C7.40862 11.0894 6.99978 11.4971 7 12.0001C6.99978 12.2514 7.10133 12.4818 7.26588 12.6463C7.43065 12.8113 7.65797 12.9155 7.90909 12.9155H11.0928V16.0897C11.0928 16.3412 11.1926 16.569 11.3573 16.7333C11.5221 16.898 11.7488 17 12.0003 17C12.503 17 12.9099 16.5923 12.9099 16.0897V12.9152H16.0896C16.5925 12.9152 17.0002 12.504 17 12.0012C16.9998 11.4986 16.592 11.0872 16.0896 11.0872Z" fill="white"/>
</svg>
