<?xml version="1.0" encoding="UTF-8"?>
<svg width="16px" height="16px" viewBox="0 0 16 16" version="1.1" xmlns="http://www.w3.org/2000/svg" xmlns:xlink="http://www.w3.org/1999/xlink">
    <!-- Generator: Sketch 47.1 (45422) - http://www.bohemiancoding.com/sketch -->
    <title>Group</title>
    <desc>Created with Sketch.</desc>
    <defs></defs>
    <g id="Symbols" stroke="none" stroke-width="1" fill="none" fill-rule="evenodd">
        <g id="Icon/Pink/Add">
            <g id="Group">
                <rect id="Rectangle" fill="#8E3F93" x="0" y="0" width="16" height="16" rx="8"></rect>
                <path d="M11.2716699,7.26973989 L8.72788958,7.26973989 L8.72788958,4.72841002 C8.72788958,4.32614585 8.40328665,4 8.00096933,4 C7.59865202,4 7.27422531,4.32614585 7.27422531,4.72858622 L7.27422531,7.27150188 L4.72921143,7.27150188 C4.32689412,7.27150188 3.99982406,7.59764773 4.00000029,8.0000881 C3.99982406,8.20113208 4.08106291,8.38543709 4.21270156,8.51705834 C4.34451643,8.649032 4.52637866,8.73237451 4.72727298,8.73237451 L7.27422531,8.73237451 L7.27422531,11.2717662 C7.27422531,11.4729864 7.35405437,11.655177 7.48586924,11.786622 C7.61768411,11.9184195 7.79901767,12 8.00026444,12 C8.40240553,12 8.72788958,11.6738542 8.72788958,11.2717662 L8.72788958,8.73219831 L11.2716699,8.73219831 C11.6739872,8.73219831 12.0001762,8.40323327 11.9999999,8.0009691 C11.9998237,7.59888113 11.6736348,7.26973989 11.2716699,7.26973989 Z" id="Shape" fill="#FFFFFF" fill-rule="nonzero"></path>
            </g>
        </g>
    </g>
</svg>