<?xml version="1.0" encoding="UTF-8"?>
<svg width="17px" height="14px" viewBox="0 0 17 14" version="1.1" xmlns="http://www.w3.org/2000/svg" xmlns:xlink="http://www.w3.org/1999/xlink">
    <!-- Generator: Sketch 47.1 (45422) - http://www.bohemiancoding.com/sketch -->
    <title>Shape</title>
    <desc>Created with Sketch.</desc>
    <defs></defs>
    <g id="Symbols" stroke="none" stroke-width="1" fill="none" fill-rule="evenodd">
        <g id="Bar/Icon_back" transform="translate(1.000000, -1.000000)" fill-rule="nonzero" fill="#4F2D7F">
            <path d="M13.8653061,5.83510204 C14.2832653,6.25306122 14.2832653,6.92571429 13.8653061,7.34367347 C13.6563265,7.55265306 13.3853061,7.65714286 13.1110204,7.65714286 C12.8367347,7.65714286 12.5657143,7.55265306 12.3567347,7.34367347 L8.65714286,3.64081633 L8.65714286,14.9322449 C8.65714286,15.52 8.18040816,16 7.58938776,16 C6.99836735,16 6.52163265,15.5232653 6.52163265,14.9322449 L6.52163265,3.64081633 L2.82204082,7.34367347 C2.40408163,7.76163265 1.73142857,7.76163265 1.31346939,7.34367347 C0.895510204,6.92571429 0.895510204,6.25306122 1.31346939,5.83510204 L6.83510204,0.313469388 C7.03428571,0.111020408 7.30530612,0 7.58938776,0 C7.87346939,0 8.1444898,0.111020408 8.34367347,0.313469388 L13.8653061,5.83510204 Z" id="Shape" transform="translate(7.589388, 8.000000) scale(-1, 1) rotate(90.000000) translate(-7.589388, -8.000000) "></path>
        </g>
    </g>
</svg>