<?xml version="1.0" encoding="UTF-8"?>
<svg width="265px" height="15px" viewBox="0 0 265 15" version="1.1" xmlns="http://www.w3.org/2000/svg" xmlns:xlink="http://www.w3.org/1999/xlink">
    <!-- Generator: Sketch 51.3 (57544) - http://www.bohemiancoding.com/sketch -->
    <title>Bar/Status</title>
    <desc>Created with Sketch.</desc>
    <defs>
        <polygon id="path-1" points="0 0 7.59322034 12 15.1864407 0"></polygon>
        <polygon id="path-3" points="10.8422425 12 10.8422425 0 0 12"></polygon>
        <path d="M6.6440678,0.923076923 L5.69491525,0.923076923 L5.69491525,0 L1.89830508,0 L1.89830508,0.923076923 L0.949152542,0.923076923 C0.379661017,0.923076923 0,1.29230769 0,1.84615385 L0,11.0769231 C0,11.6307692 0.379661017,12 0.949152542,12 L6.6440678,12 C7.21355932,12 7.59322034,11.6307692 7.59322034,11.0769231 L7.59322034,1.84615385 C7.59322034,1.29230769 7.21355932,0.923076923 6.6440678,0.923076923 L6.6440678,0.923076923 Z" id="path-5"></path>
    </defs>
    <g id="Bar/Status" stroke="none" stroke-width="1" fill="none" fill-rule="evenodd">
        <rect id="status-bar-bg" fill="#F4F4F4" x="0" y="0" width="265" height="15"></rect>
        <g id="status-bar-contents" transform="translate(165.000000, 0.000000)">
            <rect id="bounds" x="0" y="0" width="100" height="19"></rect>
            <g id="wifi" transform="translate(1.000000, 1.000000)">
                <mask id="mask-2" fill="white">
                    <use xlink:href="#path-1"></use>
                </mask>
                <g id="wifi-mask"></g>
                <path d="M7.59322034,0 C1.32881356,0 -3.79661017,5.4 -3.79661017,12 C-3.79661017,18.6 1.32881356,24 7.59322034,24 C13.8576271,24 18.9830508,18.6 18.9830508,12 C18.9830508,5.4 13.8576271,0 7.59322034,0 L7.59322034,0 Z M7.59322034,21 C2.84745763,21 -0.949152542,17 -0.949152542,12 C-0.949152542,7 2.84745763,3 7.59322034,3 C12.3389831,3 16.1355932,7 16.1355932,12 C16.1355932,17 12.3389831,21 7.59322034,21 L7.59322034,21 Z" id="Shape" fill-opacity="0.3" fill="#FFFFFF" mask="url(#mask-2)"></path>
                <path d="M7.59322034,3 C2.84745763,3 -0.949152542,7 -0.949152542,12 C-0.949152542,17 2.84745763,21 7.59322034,21 C12.3389831,21 16.1355932,17 16.1355932,12 C16.1355932,7 12.3389831,3 7.59322034,3 L7.59322034,3 Z M7.59322034,18 C4.46101695,18 1.89830508,15.3 1.89830508,12 C1.89830508,8.7 4.46101695,6 7.59322034,6 C10.7254237,6 13.2881356,8.7 13.2881356,12 C13.2881356,15.3 10.7254237,18 7.59322034,18 L7.59322034,18 Z" id="Shape" fill="#9C9C9C" mask="url(#mask-2)"></path>
                <path d="M7.59322034,6 C4.46101695,6 1.89830508,8.7 1.89830508,12 C1.89830508,15.3 4.46101695,18 7.59322034,18 C10.7254237,18 13.2881356,15.3 13.2881356,12 C13.2881356,8.7 10.7254237,6 7.59322034,6 L7.59322034,6 Z M7.59322034,15 C5.97966102,15 4.74576271,13.7 4.74576271,12 C4.74576271,10.3 5.97966102,9 7.59322034,9 C9.20677966,9 10.440678,10.3 10.440678,12 C10.440678,13.7 9.20677966,15 7.59322034,15 L7.59322034,15 Z" id="Shape" fill="#9C9C9C" mask="url(#mask-2)"></path>
                <ellipse id="Oval" fill="#9C9C9C" mask="url(#mask-2)" cx="7.59322034" cy="12" rx="2.84745763" ry="3"></ellipse>
            </g>
            <g id="reception" transform="translate(26.000000, 1.000000)">
                <mask id="mask-4" fill="white">
                    <use xlink:href="#path-3"></use>
                </mask>
                <g id="reception-mask"></g>
                <rect id="Rectangle-path" fill="#E7E7E7" mask="url(#mask-4)" x="8.13168188" y="0" width="2.71056063" height="12"></rect>
                <rect id="Rectangle-path" fill="#9C9C9C" mask="url(#mask-4)" x="5.42112125" y="0" width="2.71056063" height="12"></rect>
                <rect id="Rectangle-path" fill="#9C9C9C" mask="url(#mask-4)" x="2.71056063" y="0" width="2.71056063" height="12"></rect>
                <rect id="Rectangle-path" fill="#9C9C9C" mask="url(#mask-4)" x="0" y="0" width="2.71056063" height="12"></rect>
            </g>
            <g id="battery" transform="translate(50.000000, 1.000000)">
                <mask id="mask-6" fill="white">
                    <use xlink:href="#path-5"></use>
                </mask>
                <g id="battery-mask"></g>
                <rect id="Rectangle-path" fill="#9C9C9C" mask="url(#mask-6)" x="0" y="9.23076923" width="7.59322034" height="2.76923077"></rect>
                <rect id="Rectangle-path" fill="#9C9C9C" mask="url(#mask-6)" x="0" y="6.46153846" width="7.59322034" height="2.76923077"></rect>
                <rect id="Rectangle-path" fill-opacity="0.3" fill="#FFFFFF" mask="url(#mask-6)" x="0" y="3.69230769" width="7.59322034" height="2.76923077"></rect>
                <rect id="Rectangle-path" fill-opacity="0.3" fill="#FFFFFF" mask="url(#mask-6)" x="0" y="0.923076923" width="7.59322034" height="2.76923077"></rect>
                <rect id="Rectangle-path" fill-opacity="0.3" fill="#FFFFFF" mask="url(#mask-6)" x="1.89830508" y="0" width="3.79661017" height="1"></rect>
            </g>
            <g id="time" opacity="0.9" transform="translate(65.000000, 3.000000)" fill="#9C9C9C" font-family="Roboto-Regular, Roboto" font-size="10" font-weight="normal">
                <text id="12:30">
                    <tspan x="0" y="9">12:30</tspan>
                </text>
            </g>
        </g>
    </g>
</svg>