<?xml version="1.0" encoding="utf-8"?>
<!-- Generator: Adobe Illustrator 23.0.3, SVG Export Plug-In . SVG Version: 6.00 Build 0)  -->
<svg version="1.1" id="Layer_1" xmlns="http://www.w3.org/2000/svg" xmlns:xlink="http://www.w3.org/1999/xlink" x="0px" y="0px"
	 viewBox="0 0 32 32" style="enable-background:new 0 0 32 32;" xml:space="preserve">
<style type="text/css">
	.st0{fill:#97999B;}
</style>
<path class="st0" d="M6,4V2c0-1.1,0.9-2,2-2s2,0.9,2,2v2c0,1.1-0.9,2-2,2S6,5.1,6,4z M20,6c1.1,0,2-0.9,2-2V2c0-1.1-0.9-2-2-2
	c-1.1,0-2,0.9-2,2v2C18,5.1,18.9,6,20,6z M28,28H0V4h5c0,1.7,1.3,3,3,3s3-1.3,3-3h6c0,1.7,1.3,3,3,3s3-1.3,3-3h5V28L28,28z M26,10H2
	v16h24V10L26,10z M30,6v24H2v2h30V6H30z M10,12H6v4h4V12z M16,12h-4v4h4V12z M22,12h-4v4h4V12z M10,18H6v4h4V18z M16,18h-4v4h4V18z
	 M22,18h-4v4h4V18z"/>
</svg>
