<?xml version="1.0" encoding="UTF-8"?>
<svg width="146px" height="162px" viewBox="0 0 146 162" version="1.1" xmlns="http://www.w3.org/2000/svg" xmlns:xlink="http://www.w3.org/1999/xlink">
    <!-- Generator: Sketch 47 (45396) - http://www.bohemiancoding.com/sketch -->
    <title>Fill 1</title>
    <desc>Created with Sketch.</desc>
    <defs></defs>
    <g id="Symbols" stroke="none" stroke-width="1" fill="none" fill-rule="evenodd">
        <g id="Card/Credit-big" transform="translate(-11.000000, -19.000000)" fill="#FFFFFF">
            <g id="img-tarjeta">
                <path d="M156.966351,177.316799 C156.966351,176.274108 155.65935,175.964214 155.65935,175.964214 C142.555316,173.466979 130.312941,164.167643 121.073866,154.413259 C105.953788,138.404236 93.2945944,118.026057 88.4108547,108.540885 C86.9307213,105.099904 89.0243244,104.722205 89.0243244,104.722205 L89.0123152,104.703621 C114.674966,94.9095589 119.016791,69.2450976 119.062826,62.2330513 C119.207938,29.6735702 88.5284447,19.9227022 60.8842762,19.808187 C55.5617005,19.7670017 52.0450076,19.9694123 48.4372449,20.171823 C44.9640853,20.3661974 41.406361,20.5610742 36.0717761,20.5384725 C23.42259,20.4741832 15.8097605,19.5635866 13.8587665,19.5635866 C12.1224369,19.5635866 11.012587,21.0894513 11.0000774,22.8252604 C10.9570445,30.6861255 28.8632562,17.4425443 28.7501696,43.6459301 L28.2417803,148.372583 C28.142204,172.628206 11.1982292,165.801493 11.1672054,171.674917 C11.1617012,173.621675 13.3493764,174.361001 14.6328592,174.376069 C17.7717629,174.391639 21.1213278,174.179183 24.9542628,173.966225 C28.838237,173.750254 33.2190916,173.534784 38.3815448,173.556884 C51.252901,173.612634 54.5083939,174.55638 61.9180678,174.596561 C67.3262091,174.611629 68.2258981,173.494603 68.2319027,171.981295 C68.2714329,164.536301 45.3463781,175.778378 45.5034984,144.348981 L46.0153904,33.900587 C46.0524187,27.3621715 50.8155661,27.3998409 57.7773971,27.4184245 C82.8551004,27.5349488 102.604724,41.6404075 102.92597,68.0602672 C103.117116,86.0024871 89.6838295,102.99845 67.4578099,102.877908 C59.6087995,102.85631 61.3376234,102.38268 59.5712708,102.38268 C58.5414822,102.358069 57.4191228,102.80056 57.4191228,104.304827 C57.401109,106.349526 59.0228508,107.368108 60.8842762,107.907033 C63.3296488,108.96228 68.9379433,109.930135 74.7333812,118.979346 L74.7463911,118.979346 C89.4901812,143.433362 106.02134,180.070688 144.125518,180.253511 C158.365923,180.321818 156.954342,178.644271 156.966351,177.316799" id="Fill-1"></path>
            </g>
        </g>
    </g>
</svg>