<?xml version="1.0" encoding="UTF-8"?>
<svg width="82px" height="190px" viewBox="0 0 82 190" version="1.1" xmlns="http://www.w3.org/2000/svg" xmlns:xlink="http://www.w3.org/1999/xlink">
    <!-- Generator: Sketch 47.1 (45422) - http://www.bohemiancoding.com/sketch -->
    <title>Group 2</title>
    <desc>Created with Sketch.</desc>
    <defs></defs>
    <g id="Symbols" stroke="none" stroke-width="1" fill="none" fill-rule="evenodd">
        <g id="Card/Mastercard-big" transform="translate(-222.000000, 0.000000)">
            <g id="img-tarjeta">
                <g id="Group-2" transform="translate(222.000000, 0.000000)">
                    <g id="Group" transform="translate(74.000000, 0.000000)">
                        <polygon id="guion" fill="#A73E92" points="0 189.479452 20 189.479452 20 124 0 124"></polygon>
                        <polygon id="guion" fill="#FFAE47" points="0 124 20 124 20 65 0 65"></polygon>
                        <polygon id="guion" fill="#FF1C33" points="0 95 18 95 18 0 0 0"></polygon>
                    </g>
                    <g id="Brand/Logo-mastercard" transform="translate(0.000000, 130.000000)">
                        <g id="Group-2">
                            <g id="logo-master">
                                <path d="M8.50082754,34.05993 C8.64304385,34.2004759 8.75308984,34.3678569 8.83096553,34.5624589 C8.90884122,34.7568679 8.94768098,34.9709687 8.94768098,35.2043753 L8.94768098,37.7141236 L8.0867329,37.7141236 L8.0867329,35.4920311 C8.0867329,35.1557248 8.00689561,34.8972207 7.84702487,34.7165188 C7.68715412,34.53601 7.46235428,34.4456591 7.17262535,34.4456591 C7.03335145,34.4456591 6.90212013,34.4684398 6.77912754,34.5143875 C6.65613496,34.5603352 6.54883521,34.6275193 6.4572283,34.7165188 C6.36562138,34.8055184 6.2926497,34.9161403 6.23792095,35.0479987 C6.18319219,35.18005 6.15592589,35.330828 6.15592589,35.5003325 L6.15592589,37.7141236 L5.29497781,37.7141236 L5.29497781,35.4920311 C5.29497781,35.1557248 5.21514052,34.8972207 5.05526978,34.7165188 C4.89539904,34.53601 4.67040304,34.4456591 4.38087026,34.4456591 C4.2414002,34.4456591 4.11016888,34.4684398 3.9871763,34.5143875 C3.86418371,34.5603352 3.75688397,34.6275193 3.66547321,34.7165188 C3.57386629,34.8055184 3.50069846,34.9161403 3.44616586,35.0479987 C3.3914371,35.18005 3.36397465,35.330828 3.36397465,35.5003325 L3.36397465,37.7141236 L2.50322273,37.7141236 L2.50322273,33.7201487 L3.35593207,33.7201487 L3.35593207,34.2080052 C3.43518088,34.0912054 3.52325691,33.9946766 3.62035631,33.9182258 C3.71725956,33.841775 3.81906682,33.781541 3.92577809,33.7369447 C4.03229319,33.6925415 4.13959294,33.6612662 4.24748117,33.6431188 C4.35556556,33.6249713 4.46011907,33.6158976 4.56114168,33.6158976 C4.86185561,33.6158976 5.1290261,33.6792205 5.36265316,33.8056732 C5.59628022,33.9321259 5.78145565,34.1064569 5.91817946,34.3288592 C6.00292077,34.187155 6.10257026,34.069776 6.2173241,33.9765292 C6.33227411,33.8834754 6.45310893,33.8104997 6.58022088,33.7577949 C6.70733283,33.7048972 6.83719103,33.6682162 6.96959931,33.647173 C7.10220375,33.6265158 7.22990419,33.6158976 7.35289677,33.6158976 C7.58534687,33.6158976 7.79916172,33.6548953 7.9945375,33.7326975 C8.18991328,33.8104997 8.35861124,33.9195772 8.50082754,34.05993 Z M13.0409801,34.2037193 L13.0409801,33.7201101 L13.926252,33.7201101 L13.926252,37.714085 L13.0409801,37.714085 L13.0409801,37.2347231 C12.8997446,37.4123361 12.7247695,37.5542334 12.5156625,37.6598359 C12.3067516,37.7654383 12.0568432,37.8181431 11.7659373,37.8181431 C11.4807201,37.8181431 11.215315,37.7660175 10.9697222,37.6617664 C10.7239332,37.5575153 10.5093337,37.4123361 10.3257275,37.2262286 C10.1423175,37.0401211 9.99813964,36.8182979 9.89358614,36.5611452 C9.78922879,36.3041856 9.73705012,36.0229008 9.73705012,35.7170976 C9.73705012,35.4112944 9.78922879,35.1300095 9.89358614,34.8728568 C9.99813964,34.6158972 10.1423175,34.3942671 10.3257275,34.2079666 C10.5093337,34.0218591 10.7239332,33.8764867 10.9697222,33.7724287 C11.215315,33.6681776 11.4807201,33.615859 11.7659373,33.615859 C12.0568432,33.615859 12.3067516,33.669529 12.5156625,33.7764829 C12.7247695,33.8834368 12.8997446,34.0259133 13.0409801,34.2037193 Z M13.0070443,36.2256112 C13.0664809,36.0700068 13.0961011,35.9005023 13.0961011,35.7170976 C13.0961011,35.5336929 13.0664809,35.3641883 13.0070443,35.2083909 C12.9478039,35.0529795 12.8644357,34.9182254 12.7571359,34.8041283 C12.6498362,34.6902244 12.5213511,34.6006457 12.3716807,34.5351992 C12.2220103,34.4699457 12.055274,34.4371259 11.871864,34.4371259 C11.6798229,34.4371259 11.5081825,34.4712971 11.357139,34.5394464 C11.2060955,34.6074027 11.0781989,34.6992981 10.9738416,34.8145535 C10.8694842,34.9298088 10.7888623,35.0653352 10.7323681,35.2209396 C10.6758739,35.3767371 10.6476268,35.5419944 10.6476268,35.7170976 C10.6476268,35.8922008 10.6758739,36.0576511 10.7323681,36.2132555 C10.7888623,36.3688599 10.8694842,36.5043863 10.9738416,36.6196417 C11.0781989,36.7350901 11.2060955,36.8267925 11.357139,36.8949418 C11.5081825,36.962898 11.6798229,36.9968762 11.871864,36.9968762 C12.055274,36.9968762 12.2220103,36.9642494 12.3716807,36.898996 C12.5213511,36.8335495 12.6498362,36.7441638 12.7571359,36.6300668 C12.8644357,36.5161628 12.9478039,36.3814087 13.0070443,36.2256112 Z M17.9957372,35.7109197 C18.2442725,35.9010814 18.368442,36.1673078 18.368442,36.5092128 C18.368442,36.7009189 18.3266599,36.8767944 18.2434879,37.036453 C18.1601197,37.1963046 18.0402657,37.3339547 17.8835335,37.44921 C17.7266051,37.5646585 17.5333871,37.6542372 17.3030948,37.7181392 C17.0729986,37.7822343 16.8124976,37.8140888 16.5215917,37.8140888 C16.4170382,37.8140888 16.2956149,37.8077179 16.1573218,37.7953623 C16.0188325,37.7826205 15.8721045,37.7579091 15.7167455,37.7202629 C15.5613864,37.6826166 15.4032811,37.6304911 15.2424296,37.5640793 C15.0813819,37.4972814 14.927396,37.4096332 14.780668,37.3011349 L15.1916241,36.6468628 C15.264988,36.7024634 15.3446292,36.7543959 15.4309398,36.8030464 C15.5170542,36.8516969 15.6143498,36.8949418 15.7232188,36.9323949 C15.8318917,36.9698481 15.9519418,36.999772 16.0831732,37.0219737 C16.2146006,37.0441753 16.3634864,37.0553726 16.5300266,37.0553726 C16.835056,37.0553726 17.0651522,37.0113555 17.2205113,36.9239004 C17.3758703,36.8364453 17.4535498,36.7177149 17.4535498,36.5675161 C17.4535498,36.4536122 17.3970556,36.3597862 17.2840672,36.2860382 C17.1710788,36.2126763 16.9931613,36.1590063 16.7503147,36.1256074 L16.3268044,36.0715513 C15.8748508,36.010352 15.5325509,35.8804243 15.2995123,35.681768 C15.0664737,35.4829187 14.9501506,35.2224841 14.9501506,34.900078 C14.9501506,34.7025801 14.9887942,34.524774 15.0664737,34.3662738 C15.1441532,34.2079666 15.2557685,34.0739846 15.4011234,33.9641349 C15.5466744,33.8542851 15.7224341,33.7695328 15.9285987,33.7098781 C16.1347633,33.6500302 16.3676058,33.6201063 16.6275183,33.6201063 C16.9466713,33.6201063 17.2473852,33.6569803 17.5298562,33.7305352 C17.8121311,33.8042832 18.0592932,33.9077621 18.2709503,34.0413579 L17.8898106,34.7207275 C17.8278239,34.6848188 17.7513214,34.6464003 17.6610876,34.6060513 C17.5706576,34.5657022 17.4704196,34.5290213 17.3603736,34.4956224 C17.2501315,34.4622234 17.1336122,34.4346162 17.0108158,34.4122215 C16.8880194,34.3900199 16.7630652,34.3790156 16.6359532,34.3790156 C16.3931066,34.3790156 16.2045965,34.4226466 16.0706189,34.5101017 C15.936249,34.5977498 15.8693583,34.712426 15.8693583,34.8543233 C15.8693583,34.923631 15.8870127,34.9821274 15.9223216,35.0292335 C15.9574343,35.0765326 16.0049051,35.1153371 16.0641456,35.1458402 C16.123386,35.1765364 16.1940038,35.2008616 16.2758027,35.218816 C16.3577977,35.2371565 16.4452853,35.2529872 16.5386577,35.2668873 L16.9578525,35.3292449 C17.401175,35.39334 17.747202,35.520565 17.9957372,35.7109197 Z M26.2848292,34.1974836 C26.4529387,34.3822396 26.5839739,34.6032906 26.6787194,34.8604432 C26.7732687,35.1174029 26.8207395,35.4017766 26.8207395,35.7129854 C26.8207395,35.768586 26.8191702,35.8239935 26.816424,35.8795941 C26.8134816,35.9351947 26.8093622,35.9880925 26.8036735,36.0380944 L23.8047731,36.0380944 C23.832824,36.2187963 23.8851988,36.3730493 23.9613091,36.5008534 C24.0378116,36.6286575 24.1294185,36.7336808 24.2367183,36.8155372 C24.3442142,36.8977797 24.4640682,36.9580137 24.5968688,36.9968183 C24.7294733,37.0360089 24.8677664,37.0553147 25.0119443,37.0553147 C25.2151665,37.0553147 25.4191733,37.0186338 25.6239648,36.9448858 C25.8287563,36.8713308 26.0158933,36.7676589 26.1853759,36.6342561 L26.625756,37.2553223 C26.3774169,37.4638245 26.1137773,37.609776 25.835818,37.6931769 C25.5576626,37.7765778 25.2645989,37.8180851 24.9570194,37.8180851 C24.6519899,37.8180851 24.3724613,37.7682763 24.1182374,37.6680794 C23.8640135,37.5680756 23.6452946,37.4263713 23.4614923,37.2429667 C23.2778862,37.059562 23.1354737,36.8385111 23.0338626,36.580007 C22.9320553,36.3215029 22.8812498,36.0338471 22.8812498,35.7172327 C22.8812498,35.4058309 22.9306822,35.1210709 23.0295471,34.8625669 C23.1284119,34.6040628 23.266705,34.3822396 23.4446225,34.1974836 C23.62254,34.0127275 23.8349818,33.8696718 24.08234,33.7681235 C24.329306,33.6665752 24.6023613,33.6159942 24.9018983,33.6159942 C25.1841731,33.6159942 25.443301,33.6665752 25.6790859,33.7681235 C25.9148707,33.8696718 26.1167198,34.0127275 26.2848292,34.1974836 Z M23.8088924,35.3753278 L25.914086,35.3753278 C25.8660267,35.064119 25.7532345,34.8222178 25.575317,34.6498174 C25.3973995,34.4776101 25.1671072,34.3913133 24.8848323,34.3913133 C24.726727,34.3913133 24.5862762,34.4150594 24.4632836,34.4623585 C24.3404872,34.5096576 24.2347567,34.5768417 24.1456999,34.6644898 C24.0568392,34.7519449 23.9840637,34.856389 23.9275695,34.97705 C23.8710753,35.097904 23.8314509,35.2307276 23.8088924,35.3753278 Z M38.0466472,34.2037193 L38.0466472,33.7201101 L38.9321153,33.7201101 L38.9321153,37.714085 L38.0466472,37.714085 L38.0466472,37.2347231 C37.9054117,37.4123361 37.7304366,37.5542334 37.5213296,37.6598359 C37.3126149,37.7654383 37.0625104,37.8181431 36.7718006,37.8181431 C36.4863872,37.8181431 36.2209822,37.7660175 35.9753893,37.6617664 C35.7296003,37.5575153 35.515197,37.4123361 35.3313947,37.2262286 C35.1479847,37.0401211 35.0038068,36.8182979 34.8994494,36.5611452 C34.7948959,36.3041856 34.7427173,36.0229008 34.7427173,35.7170976 C34.7427173,35.4112944 34.7948959,35.1300095 34.8994494,34.8728568 C35.0038068,34.6158972 35.1479847,34.3942671 35.3313947,34.2079666 C35.515197,34.0218591 35.7296003,33.8764867 35.9753893,33.7724287 C36.2209822,33.6681776 36.4863872,33.615859 36.7718006,33.615859 C37.0625104,33.615859 37.3126149,33.669529 37.5213296,33.7764829 C37.7304366,33.8834368 37.9054117,34.0259133 38.0466472,34.2037193 Z M38.0129076,36.2256112 C38.0721481,36.0700068 38.1017683,35.9005023 38.1017683,35.7170976 C38.1017683,35.5336929 38.0721481,35.3641883 38.0129076,35.2083909 C37.953471,35.0529795 37.8701028,34.9182254 37.7629992,34.8041283 C37.6555033,34.6902244 37.5270183,34.6006457 37.3773479,34.5351992 C37.2276775,34.4699457 37.0611373,34.4371259 36.8775311,34.4371259 C36.6854901,34.4371259 36.5138497,34.4712971 36.3630023,34.5394464 C36.2117626,34.6074027 36.0840622,34.6992981 35.9795087,34.8145535 C35.8751514,34.9298088 35.7945294,35.0653352 35.7380352,35.2209396 C35.681541,35.3767371 35.6534901,35.5419944 35.6534901,35.7170976 C35.6534901,35.8922008 35.681541,36.0576511 35.7380352,36.2132555 C35.7945294,36.3688599 35.8751514,36.5043863 35.9795087,36.6196417 C36.0840622,36.7350901 36.2117626,36.8267925 36.3630023,36.8949418 C36.5138497,36.962898 36.6854901,36.9968762 36.8775311,36.9968762 C37.0611373,36.9968762 37.2276775,36.9642494 37.3773479,36.898996 C37.5270183,36.8335495 37.6555033,36.7441638 37.7629992,36.6300668 C37.8701028,36.5161628 37.953471,36.3814087 38.0129076,36.2256112 Z M21.7918337,36.9177033 C21.8867753,36.8823737 21.9766168,36.8418316 22.0623389,36.7968492 L22.3650144,37.5264138 C22.2475143,37.5912811 22.1219717,37.6501637 21.986621,37.701517 C21.7818295,37.7793192 21.5509487,37.8181238 21.2939785,37.8181238 C20.8337862,37.8181238 20.4757934,37.6926363 20.2201964,37.4408893 C19.9645994,37.1893353 19.8368989,36.7982006 19.8368989,36.2674854 L19.8368989,34.512206 L19.0279334,34.512206 L19.0279334,33.7202839 L19.8368989,33.7202839 L19.8368989,32.5113574 L20.7264864,32.5113574 L20.7264864,33.7202839 L22.1482572,33.7202839 L22.1482572,34.512206 L20.7264864,34.512206 L20.7264864,36.2506894 C20.7264864,36.3840922 20.7433562,36.4979961 20.777292,36.5925943 C20.8110316,36.6871925 20.8571293,36.7642225 20.9149966,36.8240703 C20.9728639,36.8837251 21.0405393,36.9275492 21.1182188,36.9551564 C21.1958983,36.9831498 21.279855,36.9968569 21.3702849,36.9968569 C21.5087742,36.9968569 21.6492251,36.970408 21.7918337,36.9177033 Z M29.7845077,33.6159362 C29.9200545,33.6159362 30.0420663,33.62501 30.1509353,33.6431574 C30.2252801,33.655513 30.297271,33.6744327 30.3682811,33.6964413 L30.1066031,34.5300638 C30.0510897,34.5117234 29.9920454,34.4958926 29.9284894,34.4831508 C29.8043199,34.4580534 29.6885852,34.4456977 29.5812855,34.4456977 C29.4398538,34.4456977 29.3101918,34.4692507 29.1917109,34.5165498 C29.0728377,34.5636558 28.9712266,34.6333496 28.8866814,34.7248589 C28.801744,34.8167543 28.7354417,34.9293069 28.6873824,35.0625166 C28.6395193,35.1961124 28.6153916,35.3476626 28.6153916,35.5169741 L28.6153916,37.7141623 L27.8030913,37.7141623 L27.8030913,33.7201873 L28.6069567,33.7201873 L28.6069567,34.2443386 C28.7425035,34.0524394 28.9104168,33.8383386 29.1108928,33.749339 C29.3115649,33.6603395 29.5359724,33.6159362 29.7845077,33.6159362 Z M42.0912789,33.6159362 C42.2266296,33.6159362 42.3488375,33.62501 42.4577065,33.6431574 C42.5318552,33.655513 42.6038461,33.6744327 42.6750523,33.6964413 L42.4131781,34.5300638 C42.3576647,34.5117234 42.2986204,34.4958926 42.2352606,34.4831508 C42.1110911,34.4580534 41.9953564,34.4456977 41.8878605,34.4456977 C41.746625,34.4456977 41.6167668,34.4692507 41.4982859,34.5165498 C41.3796089,34.5636558 41.2779978,34.6333496 41.1932565,34.7248589 C41.1085152,34.8167543 41.0420168,34.9293069 40.9941537,35.0625166 C40.9460944,35.1961124 40.9221628,35.3476626 40.9221628,35.5169741 L40.9221628,37.7141623 L40.1098625,37.7141623 L40.1098625,33.7201873 L40.9137279,33.7201873 L40.9137279,34.2443386 C41.0492747,34.0524394 41.2171881,33.8383386 41.417664,33.749339 C41.6183361,33.6603395 41.8427436,33.6159362 42.0912789,33.6159362 Z M46.2261836,32.0968821 L47.1116517,32.0968821 L47.1116517,37.714085 L46.2261836,37.714085 L46.2261836,37.2347231 C46.0849481,37.4123361 45.909973,37.5542334 45.7010622,37.6598359 C45.4921513,37.7654383 45.2420468,37.8181431 44.951337,37.8181431 C44.6661198,37.8181431 44.4005186,37.7660175 44.1549257,37.6617664 C43.9091367,37.5575153 43.6947334,37.4123361 43.5111272,37.2262286 C43.3275211,37.0401211 43.1833432,36.8182979 43.0789858,36.5611452 C42.9744323,36.3041856 42.9222537,36.0229008 42.9222537,35.7170976 C42.9222537,35.4112944 42.9744323,35.1300095 43.0789858,34.8728568 C43.1833432,34.6158972 43.3275211,34.3942671 43.5111272,34.2079666 C43.6947334,34.0218591 43.9091367,33.8764867 44.1549257,33.7724287 C44.4005186,33.6681776 44.6661198,33.615859 44.951337,33.615859 C45.2420468,33.615859 45.4921513,33.669529 45.7010622,33.7764829 C45.909973,33.8834368 46.0849481,34.0259133 46.2261836,34.2037193 L46.2261836,32.0968821 Z M46.192444,36.2256112 C46.2516844,36.0700068 46.2813047,35.9005023 46.2813047,35.7170976 C46.2813047,35.5336929 46.2516844,35.3641883 46.192444,35.2083909 C46.1330074,35.0529795 46.0496392,34.9182254 45.9425356,34.8041283 C45.8352359,34.6902244 45.7065546,34.6006457 45.5570804,34.5351992 C45.4072138,34.4699457 45.2406736,34.4371259 45.0572637,34.4371259 C44.8650264,34.4371259 44.6935822,34.4712971 44.5425387,34.5394464 C44.391299,34.6074027 44.2635986,34.6992981 44.1590451,34.8145535 C44.0546878,34.9298088 43.9740658,35.0653352 43.9177678,35.2209396 C43.8610774,35.3767371 43.8330265,35.5419944 43.8330265,35.7170976 C43.8330265,35.8922008 43.8610774,36.0576511 43.9177678,36.2132555 C43.9740658,36.3688599 44.0546878,36.5043863 44.1590451,36.6196417 C44.2635986,36.7350901 44.391299,36.8267925 44.5425387,36.8949418 C44.6935822,36.962898 44.8650264,36.9968762 45.0572637,36.9968762 C45.2406736,36.9968762 45.4072138,36.9642494 45.5570804,36.898996 C45.7065546,36.8335495 45.8352359,36.7441638 45.9425356,36.6300668 C46.0496392,36.5161628 46.1330074,36.3814087 46.192444,36.2256112 Z M31.9033933,34.7937032 C31.7904049,34.9062558 31.701348,35.04101 31.6364189,35.1981588 C31.5714898,35.3551146 31.5391234,35.5280942 31.5391234,35.7170976 C31.5391234,35.9061009 31.5714898,36.0790805 31.6364189,36.2362294 C31.701348,36.3931852 31.7904049,36.5279393 31.9033933,36.6402988 C32.0161855,36.7530445 32.1503592,36.8406926 32.3057183,36.9032433 C32.4610773,36.9656008 32.6289907,36.9968762 32.8098506,36.9968762 C33.0085611,36.9968762 33.1933442,36.9656008 33.3641999,36.9032433 C33.5295631,36.8426232 33.6725641,36.7584501 33.7939874,36.6511101 L34.220244,37.3488201 C34.0603732,37.4745006 33.8804941,37.5774003 33.6802143,37.6577122 C33.41324,37.7646661 33.1231188,37.8181431 32.8098506,37.8181431 C32.4961901,37.8181431 32.2060688,37.7646661 31.9392906,37.6577122 C31.6723163,37.5507583 31.4422201,37.4034554 31.248806,37.2158035 C31.0555879,37.0281515 30.9035636,36.8067145 30.7935176,36.5509132 C30.6832755,36.2951119 30.6281544,36.0173021 30.6281544,35.7170976 C30.6281544,35.4170861 30.6832755,35.1390832 30.7935176,34.8832819 C30.9035636,34.6276737 31.0555879,34.4060436 31.248806,34.2185847 C31.4422201,34.0307397 31.6723163,33.8834368 31.9392906,33.7764829 C32.2060688,33.669529 32.4961901,33.615859 32.8098506,33.615859 C33.1231188,33.615859 33.41324,33.669529 33.6802143,33.7764829 C33.8804941,33.8567949 34.0603732,33.9598876 34.220244,34.085375 L33.7939874,34.782892 C33.6725641,34.6759381 33.5295631,34.5913789 33.3641999,34.5311449 C33.1933442,34.4684012 33.0085611,34.4371259 32.8098506,34.4371259 C32.6289907,34.4371259 32.4610773,34.4684012 32.3057183,34.5311449 C32.1503592,34.5936956 32.0161855,34.6811507 31.9033933,34.7937032 Z" id="Combined-Shape" fill="#FEFEFE"></path>
                                <path d="M48.9212708,37.4435342 L48.9212708,37.5097529 L48.9987542,37.5097529 C49.0148393,37.5097529 49.0270013,37.5072432 49.0356324,37.5026098 C49.0442634,37.4975903 49.0483828,37.4890957 49.0483828,37.4771262 C49.0483828,37.4655427 49.0442634,37.4570482 49.0356324,37.4516426 C49.0270013,37.44643 49.0148393,37.4435342 48.9987542,37.4435342 L48.9212708,37.4435342 Z M49.0005196,37.3554999 C49.0509329,37.3554999 49.0891841,37.3666972 49.1152735,37.3887058 C49.1413628,37.4107144 49.1543094,37.4400591 49.1543094,37.4771262 C49.1543094,37.5060848 49.1450899,37.5300239 49.1264546,37.5491366 C49.1076232,37.5682493 49.0805531,37.5807981 49.0448519,37.5867829 L49.1590173,37.7165176 L49.0356324,37.7165176 L48.9334328,37.590451 L48.9212708,37.590451 L48.9212708,37.7165176 L48.8182866,37.7165176 L48.8182866,37.3554999 L49.0005196,37.3554999 Z M48.9765881,37.8308076 C49.0177818,37.8308076 49.0564254,37.8230853 49.092715,37.8076407 C49.1290047,37.7921961 49.1605865,37.7711528 49.1870682,37.744704 C49.2139422,37.718062 49.2349313,37.6869797 49.250428,37.6512641 C49.2657285,37.6155484 49.2733788,37.57713 49.2733788,37.5360087 C49.2733788,37.4956597 49.2657285,37.4572412 49.250428,37.4213325 C49.2349313,37.3852308 49.2139422,37.3541485 49.1870682,37.3278927 C49.1605865,37.3016368 49.1290047,37.2807866 49.092715,37.265342 C49.0564254,37.2498974 49.0177818,37.2421751 48.9765881,37.2421751 C48.9342174,37.2421751 48.8947892,37.2498974 48.8583033,37.265342 C48.8216213,37.2807866 48.7898433,37.3016368 48.7627732,37.3278927 C48.7358992,37.3541485 48.7145177,37.3852308 48.6992172,37.4213325 C48.6839167,37.4572412 48.6762665,37.4956597 48.6762665,37.5360087 C48.6762665,37.57713 48.6839167,37.6155484 48.6992172,37.6512641 C48.7145177,37.6869797 48.7358992,37.718062 48.7627732,37.744704 C48.7898433,37.7711528 48.8216213,37.7921961 48.8583033,37.8076407 C48.8947892,37.8230853 48.9342174,37.8308076 48.9765881,37.8308076 L48.9765881,37.8308076 Z M48.9765881,37.1288503 C49.0356324,37.1288503 49.0907534,37.1396615 49.1425398,37.1610909 C49.19413,37.1825203 49.2390507,37.211672 49.277302,37.248546 C49.3159456,37.2856131 49.3461543,37.3284718 49.3681243,37.3777015 C49.3904865,37.4271243 49.4012754,37.4796359 49.4012754,37.5360087 C49.4012754,37.5918024 49.3904865,37.644314 49.3681243,37.6939298 C49.3461543,37.7435456 49.3159456,37.7867905 49.277302,37.8240506 C49.2390507,37.8611177 49.19413,37.8904624 49.1425398,37.9118918 C49.0907534,37.9333212 49.0356324,37.9441324 48.9765881,37.9441324 C48.916563,37.9441324 48.8600688,37.9333212 48.8080863,37.9118918 C48.7557114,37.8904624 48.7105945,37.8611177 48.6719509,37.8240506 C48.6336997,37.7867905 48.6036871,37.7435456 48.5819133,37.6939298 C48.5599433,37.644314 48.5491545,37.5918024 48.5491545,37.5360087 C48.5491545,37.4796359 48.5599433,37.4271243 48.5819133,37.3777015 C48.6036871,37.3284718 48.6336997,37.2856131 48.6719509,37.248546 C48.7105945,37.211672 48.7557114,37.1825203 48.8080863,37.1610909 C48.8600688,37.1396615 48.916563,37.1288503 48.9765881,37.1288503 L48.9765881,37.1288503 Z" id="Fill-21" fill="#FEFEFE"></path>
                                <path d="M18.97242,15.0514821 C18.97242,10.2669365 21.2435653,6.00673518 24.779553,3.24987314 C22.1721887,1.21717003 18.878263,-5.79172697e-05 15.2934313,-5.79172697e-05 C6.84715598,-5.79172697e-05 -1.96160419e-05,6.73880947 -1.96160419e-05,15.0514821 C-1.96160419e-05,23.3643478 6.84715598,30.1032152 15.2934313,30.1032152 C18.878263,30.1032152 22.1721887,28.8859873 24.779553,26.8530911 C21.2435653,24.0962291 18.97242,19.8362208 18.97242,15.0514821" id="Fill-24" fill="#E30E17"></path>
                                <path d="M18.97242,15.0514821 C18.97242,19.8362208 21.2435653,24.0962291 24.779553,26.8530911 C28.3157369,24.0962291 30.5868822,19.8362208 30.5868822,15.0514821 C30.5868822,10.2669365 28.3157369,6.00673518 24.779553,3.24987314 C21.2435653,6.00673518 18.97242,10.2669365 18.97242,15.0514821" id="Fill-27" fill="#EA600A"></path>
                                <path d="M49.4810146,23.4236294 L49.4810146,22.8737032 L49.3527257,23.3481814 L49.2107055,23.3481814 L49.0824166,22.8750651 L49.0824166,23.4236294 L48.9486352,23.4236294 L48.9486352,22.631289 L49.1404801,22.631289 L49.2821079,23.1387246 L49.4229511,22.631289 L49.614796,22.631289 L49.614796,23.4236294 L49.4810146,23.4236294 Z M48.5223786,23.4236294 L48.5223786,22.8020684 L48.3413225,22.8020684 L48.3413225,22.631289 L48.8372161,22.631289 L48.8372161,22.8020684 L48.65616,22.8020684 L48.65616,23.4236294 L48.5223786,23.4236294 Z" id="Fill-29" fill="#F59F00"></path>
                                <path d="M34.2659297,-1.93057566e-05 C30.6810981,-1.93057566e-05 27.3871723,1.21720865 24.7796119,3.24991175 C28.3157957,6.00677379 30.5869411,10.2669751 30.5869411,15.0515207 C30.5869411,19.8362594 28.3157957,24.0960746 24.7796119,26.8531297 C27.3871723,28.8860259 30.6810981,30.1032538 34.2659297,30.1032538 C42.7122051,30.1032538 49.5593807,23.3641934 49.5593807,15.0515207 C49.5593807,6.73884808 42.7122051,-1.93057566e-05 34.2659297,-1.93057566e-05" id="Fill-31" fill="#F59F00"></path>
                            </g>
                        </g>
                    </g>
                </g>
            </g>
        </g>
    </g>
</svg>