<?xml version="1.0" encoding="UTF-8"?>
<svg width="28px" height="23px" viewBox="0 0 28 23" version="1.1" xmlns="http://www.w3.org/2000/svg" xmlns:xlink="http://www.w3.org/1999/xlink">
    <!-- Generator: Sketch 51.3 (57544) - http://www.bohemiancoding.com/sketch -->
    <title>Shape</title>
    <desc>Created with Sketch.</desc>
    <defs></defs>
    <g id="Symbols" stroke="none" stroke-width="1" fill="none" fill-rule="evenodd">
        <g id="layout/menu" transform="translate(-1211.000000, -25.000000)" fill="#4F2D7F">
            <g id="ic_input" transform="translate(1210.000000, 21.000000)">
                <path d="M26.4545455,4 L3.54545455,4 C2.14545455,4 1,5.1512792 1,6.55839822 L1,11.6624027 L3.54545455,11.6624027 L3.54545455,6.53281424 L26.4545455,6.53281424 L26.4545455,24.4799778 L3.54545455,24.4799778 L3.54545455,19.3375973 L1,19.3375973 L1,24.4671858 C1,25.8743048 2.14545455,27 3.54545455,27 L26.4545455,27 C27.8545455,27 29,25.8743048 29,24.4671858 L29,6.55839822 C29,5.13848721 27.8545455,4 26.4545455,4 L26.4545455,4 Z M13.7272727,20.6167964 L18.8181818,15.5 L13.7272727,10.3832036 L13.7272727,14.2208009 L1,14.2208009 L1,16.7791991 L13.7272727,16.7791991 L13.7272727,20.6167964 L13.7272727,20.6167964 Z" id="Shape"></path>
            </g>
        </g>
    </g>
</svg>