<svg width="20" height="20" viewBox="0 0 20 20" fill="none" xmlns="http://www.w3.org/2000/svg">
<path fill-rule="evenodd" clip-rule="evenodd" d="M10.0001 0C4.47606 0 0.00012207 4.47715 0.00012207 10C0.00012207 15.5241 4.47727 20 10.0001 20C15.5242 20 20.0001 15.5228 20.0001 10C20.0001 4.47594 15.523 0 10.0001 0ZM14.3229 6.63945L12.1765 4.55984C12.0541 4.44133 11.888 4.37482 11.715 4.37496H6.27725C5.91694 4.37496 5.62485 4.65795 5.62485 5.00705V14.854C5.62485 15.2031 5.91694 15.4861 6.27725 15.4861H13.8613C14.2217 15.4861 14.5137 15.2031 14.5137 14.854V7.08666C14.5139 6.91896 14.4452 6.75809 14.3229 6.63945ZM7.52982 7.4613H11.3393V8.07858H7.52982V7.4613ZM7.52982 11.7826H12.6092V11.1654H7.52982V11.7826ZM12.6092 9.93037H7.52982V9.31308H12.6092V9.93037Z" fill="white"/>
</svg>
