<?xml version="1.0" encoding="UTF-8"?>
<svg width="16px" height="16px" viewBox="0 0 16 16" version="1.1" xmlns="http://www.w3.org/2000/svg" xmlns:xlink="http://www.w3.org/1999/xlink">
    <title>icon/16/download-gray</title>
    <g id="icon/16/download-gray" stroke="none" stroke-width="1" fill="none" fill-rule="evenodd">
        <path d="M14.7105226,9.25766354 C15.0675983,9.25766354 15.3749318,9.49347811 15.4767438,9.83990682 L15.500966,9.94702866 L15.5089538,10.0560947 L15.5089538,13.3466176 C15.5089538,14.2806218 14.8307003,15.0648239 13.9201163,15.216308 L13.7662775,15.235614 L13.6136923,15.241879 L2.64526142,15.241879 C1.7112572,15.241879 0.927055137,14.5636255 0.775571041,13.6530415 L0.756264995,13.4992027 L0.75,13.3466176 L0.75,10.0560947 C0.75,9.61512834 1.1074648,9.25766354 1.54843119,9.25766354 C1.90550686,9.25766354 2.2128404,9.49347811 2.31465243,9.83990682 L2.33887462,9.94702866 L2.34686237,10.0560947 L2.34686237,13.3466176 C2.34686237,13.4689075 2.42100592,13.5757129 2.51679181,13.6199924 L2.57644041,13.6386807 L2.64529356,13.6450488 L13.6136602,13.6450488 C13.7359501,13.6450488 13.8427556,13.5709052 13.8870351,13.4751193 L13.9057233,13.4154707 L13.9120914,13.3466176 L13.9120914,10.0560947 C13.9120914,9.61512834 14.2695562,9.25766354 14.7105226,9.25766354 Z M8.12947688,1.75 C8.48655256,1.75 8.7938861,1.98581457 8.89569813,2.33224328 L8.91992031,2.43936512 L8.92790807,2.54843119 L8.927,10.323 L10.311287,8.94011183 C10.5644165,8.695633 10.9387969,8.65118231 11.2360411,8.80675762 L11.3319934,8.86602442 L11.4205992,8.94010795 C11.6714885,9.18241228 11.7322018,9.5539991 11.5769225,9.87165166 L11.5171276,9.97528696 L11.4371668,10.0721692 L8.69385336,12.8154824 C8.44692569,13.061781 8.07428,13.115542 7.75957597,12.9543982 L7.65707254,12.8926935 L7.56493906,12.8142609 L4.81980184,10.0690703 C4.52095944,9.75965518 4.52095944,9.26913606 4.8198103,8.95971221 C5.06211263,8.70886195 5.43368484,8.64815852 5.75132913,8.80341046 L5.85496193,8.86319486 L5.95185877,8.94315786 L7.331,10.323 L7.3310457,2.54843119 C7.3310457,2.17838946 7.58276916,1.8671488 7.92432316,1.77660212 L8.02932238,1.75622083 L8.12947688,1.75 Z" id="Combined-Shape" fill="#97999B" fill-rule="nonzero"></path>
    </g>
</svg>