<?xml version="1.0" encoding="UTF-8"?>
<svg width="551px" height="380px" viewBox="0 0 551 380" version="1.1" xmlns="http://www.w3.org/2000/svg" xmlns:xlink="http://www.w3.org/1999/xlink">
    <!-- Generator: Sketch 52.3 (67297) - http://www.bohemiancoding.com/sketch -->
    <title>Group 23</title>
    <desc>Created with Sketch.</desc>
    <g id="Page-1" stroke="none" stroke-width="1" fill="none" fill-rule="evenodd">
        <g id="Group-23" fill="#4F2D7F">
            <path d="M275.4439,36.0939 C200.7769,36.0939 126.1109,36.0919 51.4449,36.0959 C39.2389,36.0969 35.4059,39.9679 35.4049,52.3189 C35.3999,144.1509 35.3989,235.9839 35.4059,327.8169 C35.4069,340.0519 39.2759,343.8749 51.6099,343.8749 C175.9419,343.8779 300.2739,343.8949 424.6069,343.8309 C431.5019,343.8279 437.8489,345.2599 443.5329,349.1319 C448.9869,352.8469 452.5109,357.7889 451.2789,364.7259 C450.0479,371.6569 446.0069,376.4939 439.1609,378.6789 C435.9629,379.6989 432.6489,379.9749 429.2909,379.9739 C303.2919,379.9589 177.2939,379.9929 51.2959,379.9349 C25.3689,379.9229 5.7039,364.6029 0.7449,340.8649 C0.2049,338.2809 0.0479,335.5769 0.0479,332.9299 C0.0069,237.9309 -0.0161,142.9309 0.0139,47.9319 C0.0209,23.5819 18.7359,3.1519 42.9439,0.6599 C47.5999,0.1799 52.2379,0.0009 56.9049,0.0009 C203.9039,0.0099 350.9029,0.0139 497.9019,-9.99999995e-05 C513.3929,-0.0021 527.2249,4.1699 537.9419,15.9619 C545.9489,24.7719 550.5779,35.0359 550.5759,47.1609 C550.5629,142.3269 550.4799,237.4929 550.6369,332.6589 C550.6719,353.7809 533.3649,379.0409 502.5459,379.7539 C493.1229,379.9719 485.3399,372.4609 484.3899,363.0649 C483.5279,354.5189 489.9619,346.3629 499.1399,344.4429 C500.7629,344.1029 502.4349,343.9999 504.0849,343.7809 C510.3899,342.9449 514.6219,338.5019 515.0999,332.1379 C515.2239,330.4789 515.1819,328.8059 515.1819,327.1399 C515.1849,235.6409 515.1849,144.1409 515.1839,52.6419 C515.1839,51.4749 515.2019,50.3069 515.1609,49.1419 C514.8749,40.8859 510.1919,36.1709 501.9419,36.1239 C487.4429,36.0419 472.9419,36.0939 458.4419,36.0939 C397.4429,36.0929 336.4429,36.0939 275.4439,36.0939" id="Fill-1"></path>
            <path d="M126.2716,181.3044 C126.2716,204.6294 126.2616,227.9544 126.2826,251.2794 C126.2856,254.6094 126.2866,257.9524 126.5476,261.2684 C127.6296,274.9584 133.8516,282.0374 147.2036,285.0994 C149.7826,285.6914 152.5346,285.7224 154.8766,287.1794 C156.3916,288.1214 157.3956,289.4274 157.1176,291.3044 C156.8696,292.9854 155.6406,293.8144 154.1076,294.2824 C150.0236,295.5264 145.8356,295.2824 141.7046,294.8754 C123.4296,293.0784 105.1616,293.4094 86.8856,294.7644 C86.2216,294.8134 85.5436,294.9374 84.8936,294.8564 C81.9456,294.4844 78.2956,294.6104 77.7886,290.7834 C77.3126,287.1814 80.6256,286.3644 83.3336,285.4634 C96.0216,281.2404 100.7606,274.6914 100.9996,259.9334 C101.2646,243.4434 101.1516,226.9464 101.1826,210.4534 C101.2356,182.2964 101.2146,154.1394 101.3586,125.9834 C101.3936,119.3434 102.0766,112.7384 101.1796,106.0714 C100.0216,97.4714 95.6626,90.7564 86.5606,90.7314 C84.7466,90.7254 82.9106,90.3714 81.1256,89.9894 C78.7326,89.4754 77.2466,87.9644 77.3746,85.4224 C77.5086,82.7474 79.0076,81.1304 81.7386,80.8344 C82.5626,80.7454 83.4106,80.7044 84.2326,80.7864 C106.3576,83.0114 128.4916,80.7154 150.6136,80.9854 C165.8406,81.1714 180.8306,83.5444 194.8286,90.0674 C223.3126,103.3384 234.3616,130.2464 223.4766,159.8154 C217.2076,176.8434 206.2546,189.6544 189.4756,197.1844 C183.8376,199.7154 183.5456,200.5894 186.4366,205.6824 C200.1466,229.8384 215.9146,252.4974 235.9826,271.8604 C247.0106,282.4994 259.4776,290.9864 274.5896,294.9544 C276.7166,295.5124 279.7466,295.6144 279.3106,298.9464 C278.9156,301.9634 276.1116,301.9104 273.8366,302.1854 C244.4516,305.7554 220.6816,295.2094 201.4336,273.3274 C188.1286,258.2024 178.3746,240.7164 168.4176,223.3884 C163.1176,214.1664 156.8756,206.2574 146.1676,203.0624 C145.2336,202.7834 144.3346,202.2314 143.5496,201.6364 C141.9966,200.4564 140.9986,198.9224 141.6936,196.8864 C142.3556,194.9454 144.0726,194.7614 145.7976,194.7754 C152.2886,194.8304 158.8256,195.5354 165.2516,194.3684 C193.3276,189.2674 209.3276,163.7154 202.5406,134.6184 C197.2516,111.9474 181.8026,99.7894 160.0066,94.5114 C151.4796,92.4464 142.7926,92.7444 134.1466,93.1604 C128.8446,93.4154 126.6616,96.2154 126.6116,102.3324 C126.4976,116.1604 126.5166,129.9894 126.5006,143.8184 C126.4866,156.3134 126.4976,168.8084 126.4976,181.3044 L126.2716,181.3044 Z" id="Fill-4"></path>
        </g>
    </g>
</svg>