<?xml version="1.0" encoding="UTF-8"?>
<svg width="12px" height="16px" viewBox="0 0 12 16" version="1.1" xmlns="http://www.w3.org/2000/svg" xmlns:xlink="http://www.w3.org/1999/xlink">
    <!-- Generator: Sketch 51.2 (57519) - http://www.bohemiancoding.com/sketch -->
    <title>icon_download</title>
    <desc>Created with Sketch.</desc>
    <defs></defs>
    <g id="Rediseno" stroke="none" stroke-width="1" fill="none" fill-rule="evenodd">
        <g id="beneficios-v1-home-a" transform="translate(-35.000000, -858.000000)" fill="#8E3F93" fill-rule="nonzero">
            <g id="Group-2" transform="translate(19.000000, 845.000000)">
                <g id="Icon/Purple/Pin-purple" transform="translate(14.000000, 13.000000)">
                    <path d="M7.47903131,15.4270526 C6.91907856,14.8670998 2,9.83815712 2,6.4465446 C2,2.90608387 4.68281158,0 8,0 C11.3171884,0 14,2.90608387 14,6.4465446 C14,9.79917307 9.08092144,14.8316598 8.52096869,15.4270526 C8.3721205,15.5759008 7.89722386,15.8452451 7.47903131,15.4270526 Z M7.91902709,1.6190269 C5.55620548,1.6190269 3.6190269,3.73383604 3.6190269,6.37818534 C3.6190269,8.35223063 6.40414004,11.7339143 7.91902709,13.3895652 C9.47078087,11.7339143 12.2190273,8.38574583 12.2190273,6.37818534 C12.2190273,3.73383604 10.2818487,1.6190269 7.91902709,1.6190269 Z M7.92186283,8.59056391 C6.54460807,8.59056391 5.40943609,7.45539193 5.40943609,6.07813717 C5.40943609,4.70088241 6.54460807,3.56571044 7.92186283,3.56571044 C9.29911759,3.56571044 10.4342896,4.70088241 10.4342896,6.07813717 C10.4342896,7.45539193 9.29911759,8.59056391 7.92186283,8.59056391 Z" id="Combined-Shape"></path>
                </g>
            </g>
        </g>
    </g>
</svg>