<?xml version="1.0" encoding="UTF-8"?>
<svg width="12px" height="13px" viewBox="0 0 12 13" version="1.1" xmlns="http://www.w3.org/2000/svg" xmlns:xlink="http://www.w3.org/1999/xlink">
    <!-- Generator: Sketch 51.3 (57544) - http://www.bohemiancoding.com/sketch -->
    <title>icon/download</title>
    <desc>Created with Sketch.</desc>
    <defs></defs>
    <g id="Page-2" stroke="none" stroke-width="1" fill="none" fill-rule="evenodd">
        <g id="Administrador_V01" transform="translate(-1047.000000, -135.000000)" fill="#A0A0A0" fill-rule="nonzero">
            <g id="Group" transform="translate(76.000000, 112.000000)">
                <g id="fondo_tabs" transform="translate(0.000000, 0.941659)">
                    <g id="search" transform="translate(955.000000, 12.000000)">
                        <g id="btn-excel">
                            <g id="icon/search" transform="translate(14.000000, 9.000000)">
                                <path d="M10.7711864,9.15923567 C11.2288136,8.41189809 11.4576271,7.59661146 11.4576271,6.7133758 C11.4576271,5.40552866 10.9957542,4.29299363 10.0720339,3.37579618 C9.14831356,2.45859873 8.03388983,2 6.72881356,2 C5.42373729,2 4.30931356,2.45859873 3.38559322,3.37579618 C2.46187288,4.29299363 2,5.40552866 2,6.7133758 C2,8.02122293 2.46187288,9.13801274 3.38559322,10.0636943 C4.30931356,10.9893758 5.42373729,11.4522293 6.72881356,11.4522293 C7.61017797,11.4522293 8.42373729,11.2229299 9.16949153,10.7643312 L12.3983051,14 L14,12.3949045 L10.7711864,9.15923567 Z M8.84037267,8.84037267 C8.25777267,9.42297267 7.54906832,9.71428571 6.71428571,9.71428571 C5.89690311,9.71428571 5.19255528,9.42297267 4.60124224,8.84037267 C4.00992919,8.25777267 3.71428571,7.55342484 3.71428571,6.72732919 C3.71428571,5.90123354 4.00992919,5.19688571 4.60124224,4.61428571 C5.19255528,4.03168571 5.89690311,3.73168571 6.71428571,3.71428571 C7.54906832,3.73168571 8.25777267,4.03168571 8.84037267,4.61428571 C9.42297267,5.19688571 9.71428571,5.90123354 9.71428571,6.72732919 C9.71428571,7.55342484 9.42297267,8.25777267 8.84037267,8.84037267 Z" id="Shape"></path>
                            </g>
                        </g>
                    </g>
                </g>
            </g>
        </g>
    </g>
</svg>