<?xml version="1.0" encoding="UTF-8"?>
<svg width="9px" height="12px" viewBox="0 0 9 12" version="1.1" xmlns="http://www.w3.org/2000/svg" xmlns:xlink="http://www.w3.org/1999/xlink">
    <!-- Generator: Sketch 51.2 (57519) - http://www.bohemiancoding.com/sketch -->
    <title>Icon/mini/ticket</title>
    <desc>Created with Sketch.</desc>
    <defs></defs>
    <g id="Rediseno" stroke="none" stroke-width="1" fill="none" fill-rule="evenodd">
        <g id="campaña-detail" transform="translate(-30.000000, -527.000000)" fill="#4F2D7F" fill-rule="nonzero">
            <g id="Icon/modal/confirm" transform="translate(24.000000, 522.000000)">
                <path d="M14.3345588,7.00565611 C14.530543,7.00565611 14.6908937,7.17364253 14.6908937,7.37895928 L14.6908937,15.7036199 C14.6908937,15.9089367 14.530543,16.0769231 14.3345588,16.0769231 L6.8178733,16.0769231 C6.62188914,16.0769231 6.46153846,15.9089367 6.46153846,15.7036199 L6.46153846,7.37895928 C6.46153846,7.17364253 6.62188914,7.00565611 6.8178733,7.00565611 L7.7186086,7.00565611 C7.91459276,7.00565611 8.07494344,7.17364253 8.07494344,7.37895928 C8.07494344,7.58427602 7.91459276,7.75226244 7.7186086,7.75226244 L7.17420814,7.75226244 L7.17420814,15.3303167 L13.9802036,15.3303167 L13.9802036,7.75226244 L12.0678733,7.75226244 C11.8718891,7.75226244 11.7115385,7.58427602 11.7115385,7.37895928 L11.7115385,6.66968326 L9.44485294,6.66968326 L9.44485294,7.88706637 L11.2898756,7.88706637 C11.4858597,7.88706637 11.6462104,8.05505279 11.6462104,8.26036953 C11.6462104,8.46568627 11.4858597,8.6336727 11.2898756,8.6336727 L9.0885181,8.6336727 C8.89253394,8.6336727 8.73218326,8.46568627 8.73218326,8.26036953 L8.73218326,6.29638009 C8.73218326,6.09106335 8.89253394,5.92307692 9.0885181,5.92307692 L12.0658937,5.92307692 C12.2618778,5.92307692 12.4222285,6.09106335 12.4222285,6.29638009 L12.4222285,7.00565611 L14.3345588,7.00565611 Z M12.2183258,10.423454 C12.3569005,10.5707014 12.3569005,10.8071267 12.2163462,10.9523002 L10.3020362,12.9411765 C10.2327489,13.0137632 10.1416855,13.0490196 10.0506222,13.0490196 C9.95757919,13.0490196 9.86651584,13.0116893 9.79722851,12.9391026 L8.93806561,12.0328054 C8.79949095,11.8855581 8.79949095,11.6491327 8.94004525,11.5039593 C9.08059955,11.3587858 9.30627828,11.3587858 9.44485294,11.5060332 L10.0526018,12.1468703 L11.7135181,10.4213801 C11.8540724,10.2762066 12.0797511,10.2762066 12.2183258,10.423454 Z" id="Combined-Shape"></path>
            </g>
        </g>
    </g>
</svg>